<svg width="156" height="33" viewBox="0 0 156 33" fill="none" xmlns="http://www.w3.org/2000/svg">
<rect y="0.660156" width="156" height="32" rx="4" fill="#212020"/>
<path d="M24 24.2185V9.10297C24.0001 9.07018 24.0099 9.03815 24.0281 9.01089C24.0464 8.98363 24.0722 8.96236 24.1025 8.94975C24.1328 8.93714 24.1661 8.93375 24.1983 8.94C24.2305 8.94625 24.2601 8.96187 24.2835 8.9849L32.1539 16.6603L24.2835 24.3365C24.2601 24.3596 24.2305 24.3752 24.1983 24.3814C24.1661 24.3877 24.1328 24.3843 24.1025 24.3717C24.0722 24.3591 24.0464 24.3378 24.0281 24.3105C24.0099 24.2833 24.0001 24.2512 24 24.2185ZM35.4539 19.8142L25.5854 25.2511L25.5792 25.2546C25.4092 25.3469 25.2477 25.1169 25.3869 24.9831L33.1227 17.5861L35.4539 19.8142ZM25.3877 8.33758C25.2477 8.20374 25.4092 7.97374 25.58 8.06604L25.5862 8.06951L35.4539 13.5065L33.1227 15.7353L25.3877 8.33758ZM39.4378 17.6219L36.682 19.1396L34.0908 16.6603L36.682 14.1822L39.4378 15.6988C40.1874 16.113 40.1874 17.2076 39.4378 17.6219Z" fill="white"/>
<path d="M58.84 11.6602V6.06016H61.2C63 6.06016 64.224 7.19616 64.224 8.86016C64.224 10.5242 63 11.6602 61.2 11.6602H58.84ZM59.64 10.9642H61.152C62.536 10.9642 63.424 10.1162 63.424 8.86016C63.424 7.60416 62.536 6.75616 61.152 6.75616H59.64V10.9642ZM68.8494 9.56416C68.8494 9.62816 68.8414 9.72416 68.8334 9.79616H65.3934C65.4894 10.5402 66.0894 11.0362 66.9294 11.0362C67.4254 11.0362 67.8414 10.8682 68.1534 10.5242L68.5774 11.0202C68.1934 11.4682 67.6094 11.7082 66.9054 11.7082C65.5374 11.7082 64.6254 10.8042 64.6254 9.54016C64.6254 8.28416 65.5294 7.38016 66.7534 7.38016C67.9774 7.38016 68.8494 8.26016 68.8494 9.56416ZM66.7534 8.02816C66.0174 8.02816 65.4734 8.52416 65.3934 9.24416H68.1134C68.0334 8.53216 67.4974 8.02816 66.7534 8.02816ZM70.8118 11.7082C70.1078 11.7082 69.4118 11.4922 69.0598 11.2122L69.3798 10.6042C69.7398 10.8602 70.3158 11.0442 70.8678 11.0442C71.5798 11.0442 71.8758 10.8282 71.8758 10.4682C71.8758 9.51616 69.1958 10.3402 69.1958 8.65216C69.1958 7.89216 69.8758 7.38016 70.9638 7.38016C71.5158 7.38016 72.1398 7.52416 72.5078 7.76416L72.1798 8.37216C71.7958 8.12416 71.3718 8.03616 70.9558 8.03616C70.2838 8.03616 69.9558 8.28416 69.9558 8.62016C69.9558 9.62016 72.6438 8.80416 72.6438 10.4522C72.6438 11.2202 71.9398 11.7082 70.8118 11.7082ZM75.1316 11.7082C73.8276 11.7082 72.8916 10.8042 72.8916 9.54016C72.8916 8.27616 73.8276 7.38016 75.1316 7.38016C75.8916 7.38016 76.5236 7.69216 76.8596 8.28416L76.2756 8.66016C76.0036 8.24416 75.5876 8.05216 75.1236 8.05216C74.2916 8.05216 73.6676 8.63616 73.6676 9.54016C73.6676 10.4602 74.2916 11.0362 75.1236 11.0362C75.5876 11.0362 76.0036 10.8442 76.2756 10.4282L76.8596 10.7962C76.5236 11.3882 75.8916 11.7082 75.1316 11.7082ZM79.0779 7.38016C80.2379 7.38016 80.8939 7.94016 80.8939 9.10016V11.6602H80.1659V11.1002C79.9099 11.4842 79.4379 11.7082 78.7739 11.7082C77.8139 11.7082 77.2059 11.1962 77.2059 10.4602C77.2059 9.78016 77.6459 9.22016 78.9099 9.22016H80.1259V9.06816C80.1259 8.42016 79.7499 8.04416 78.9899 8.04416C78.4859 8.04416 77.9739 8.22016 77.6459 8.50016L77.3259 7.92416C77.7659 7.57216 78.3979 7.38016 79.0779 7.38016ZM78.9019 11.1162C79.4779 11.1162 79.9339 10.8522 80.1259 10.3642V9.77216H78.9419C78.1819 9.77216 77.9659 10.0682 77.9659 10.4282C77.9659 10.8522 78.3179 11.1162 78.9019 11.1162ZM82.7312 8.13216C83.0032 7.63616 83.5312 7.38016 84.2752 7.38016V8.12416C84.2112 8.11616 84.1552 8.11616 84.0992 8.11616C83.2752 8.11616 82.7632 8.62016 82.7632 9.54816V11.6602H81.9952V7.42016H82.7312V8.13216ZM88.1907 7.42016H88.9187V11.0842C88.9187 12.5802 88.1587 13.2602 86.7187 13.2602C85.9427 13.2602 85.1587 13.0442 84.6947 12.6282L85.0627 12.0362C85.4547 12.3722 86.0707 12.5882 86.6947 12.5882C87.6947 12.5882 88.1507 12.1242 88.1507 11.1642V10.8282C87.7827 11.2682 87.2307 11.4842 86.6227 11.4842C85.3987 11.4842 84.4707 10.6522 84.4707 9.42816C84.4707 8.20416 85.3987 7.38016 86.6227 7.38016C87.2547 7.38016 87.8307 7.61216 88.1907 8.07616V7.42016ZM86.7107 10.8122C87.5587 10.8122 88.1667 10.2442 88.1667 9.42816C88.1667 8.60416 87.5587 8.05216 86.7107 8.05216C85.8547 8.05216 85.2467 8.60416 85.2467 9.42816C85.2467 10.2442 85.8547 10.8122 86.7107 10.8122ZM91.6101 7.38016C92.7701 7.38016 93.4261 7.94016 93.4261 9.10016V11.6602H92.6981V11.1002C92.4421 11.4842 91.9701 11.7082 91.3061 11.7082C90.3461 11.7082 89.7381 11.1962 89.7381 10.4602C89.7381 9.78016 90.1781 9.22016 91.4421 9.22016H92.6581V9.06816C92.6581 8.42016 92.2821 8.04416 91.5221 8.04416C91.0181 8.04416 90.5061 8.22016 90.1781 8.50016L89.8581 7.92416C90.2981 7.57216 90.9301 7.38016 91.6101 7.38016ZM91.4341 11.1162C92.0101 11.1162 92.4661 10.8522 92.6581 10.3642V9.77216H91.4741C90.7141 9.77216 90.4981 10.0682 90.4981 10.4282C90.4981 10.8522 90.8501 11.1162 91.4341 11.1162ZM100.188 9.56416C100.188 9.62816 100.18 9.72416 100.172 9.79616H96.7318C96.8278 10.5402 97.4278 11.0362 98.2678 11.0362C98.7638 11.0362 99.1798 10.8682 99.4918 10.5242L99.9158 11.0202C99.5318 11.4682 98.9478 11.7082 98.2438 11.7082C96.8758 11.7082 95.9638 10.8042 95.9638 9.54016C95.9638 8.28416 96.8678 7.38016 98.0918 7.38016C99.3158 7.38016 100.188 8.26016 100.188 9.56416ZM98.0918 8.02816C97.3558 8.02816 96.8118 8.52416 96.7318 9.24416H99.4518C99.3718 8.53216 98.8358 8.02816 98.0918 8.02816ZM103.198 7.38016C104.23 7.38016 104.958 7.97216 104.958 9.22016V11.6602H104.19V9.30816C104.19 8.47616 103.774 8.06816 103.046 8.06816C102.23 8.06816 101.702 8.55616 101.702 9.47616V11.6602H100.934V7.42016H101.67V8.06016C101.982 7.62816 102.526 7.38016 103.198 7.38016Z" fill="white"/>
<path d="M64.864 23.9802V21.3642H66.34V24.7122C65.464 25.4202 64.24 25.7802 63.052 25.7802C60.448 25.7802 58.528 23.9682 58.528 21.4602C58.528 18.9522 60.448 17.1402 63.076 17.1402C64.48 17.1402 65.656 17.6082 66.448 18.5082L65.464 19.4682C64.804 18.8082 64.048 18.5082 63.148 18.5082C61.36 18.5082 60.1 19.7202 60.1 21.4602C60.1 23.1642 61.36 24.4122 63.136 24.4122C63.736 24.4122 64.324 24.2922 64.864 23.9802ZM71.1335 25.7442C69.1655 25.7442 67.7255 24.3762 67.7255 22.4562C67.7255 20.5362 69.1655 19.1802 71.1335 19.1802C73.1255 19.1802 74.5535 20.5362 74.5535 22.4562C74.5535 24.3762 73.1255 25.7442 71.1335 25.7442ZM71.1335 24.4602C72.2255 24.4602 73.0415 23.6802 73.0415 22.4562C73.0415 21.2322 72.2255 20.4522 71.1335 20.4522C70.0535 20.4522 69.2375 21.2322 69.2375 22.4562C69.2375 23.6802 70.0535 24.4602 71.1335 24.4602ZM78.8679 25.7442C76.8999 25.7442 75.4599 24.3762 75.4599 22.4562C75.4599 20.5362 76.8999 19.1802 78.8679 19.1802C80.8599 19.1802 82.2879 20.5362 82.2879 22.4562C82.2879 24.3762 80.8599 25.7442 78.8679 25.7442ZM78.8679 24.4602C79.9599 24.4602 80.7759 23.6802 80.7759 22.4562C80.7759 21.2322 79.9599 20.4522 78.8679 20.4522C77.7879 20.4522 76.9719 21.2322 76.9719 22.4562C76.9719 23.6802 77.7879 24.4602 78.8679 24.4602ZM88.6543 19.2522H90.0823V24.6882C90.0823 27.0162 88.8703 28.0722 86.6263 28.0722C85.4263 28.0722 84.2383 27.7602 83.5063 27.1602L84.1783 26.0322C84.7423 26.5002 85.6543 26.8002 86.5423 26.8002C87.9583 26.8002 88.5823 26.1522 88.5823 24.8562V24.5202C88.0543 25.0962 87.2983 25.3722 86.4343 25.3722C84.5983 25.3722 83.1943 24.1242 83.1943 22.2642C83.1943 20.4042 84.5983 19.1802 86.4343 19.1802C87.3343 19.1802 88.1263 19.4682 88.6543 20.1042V19.2522ZM86.6623 24.1002C87.7903 24.1002 88.6063 23.3562 88.6063 22.2642C88.6063 21.1842 87.7903 20.4522 86.6623 20.4522C85.5223 20.4522 84.7063 21.1842 84.7063 22.2642C84.7063 23.3562 85.5223 24.1002 86.6623 24.1002ZM92.0543 25.6602V16.7562H93.5543V25.6602H92.0543ZM101.547 22.4922C101.547 22.6122 101.535 22.7922 101.523 22.9362H96.4951C96.6751 23.8722 97.4551 24.4722 98.5711 24.4722C99.2911 24.4722 99.8551 24.2442 100.311 23.7762L101.115 24.7002C100.539 25.3842 99.6391 25.7442 98.5351 25.7442C96.3871 25.7442 94.9951 24.3642 94.9951 22.4562C94.9951 20.5482 96.3991 19.1802 98.3071 19.1802C100.179 19.1802 101.547 20.4882 101.547 22.4922ZM98.3071 20.3802C97.3351 20.3802 96.6271 21.0042 96.4831 21.9402H100.119C99.9991 21.0162 99.2911 20.3802 98.3071 20.3802ZM109.904 17.2602C112.112 17.2602 113.48 18.3882 113.48 20.2482C113.48 22.0962 112.112 23.2362 109.904 23.2362H108.008V25.6602H106.448V17.2602H109.904ZM109.832 21.9162C111.2 21.9162 111.908 21.3042 111.908 20.2482C111.908 19.1922 111.2 18.5802 109.832 18.5802H108.008V21.9162H109.832ZM115.011 25.6602V16.7562H116.511V25.6602H115.011ZM120.928 19.1802C122.776 19.1802 123.844 20.0562 123.844 21.9042V25.6602H122.428V24.8802C122.068 25.4322 121.372 25.7442 120.412 25.7442C118.948 25.7442 118.024 24.9402 118.024 23.8242C118.024 22.7562 118.744 21.9162 120.688 21.9162H122.344V21.8202C122.344 20.9442 121.816 20.4282 120.748 20.4282C120.028 20.4282 119.284 20.6682 118.804 21.0642L118.216 19.9722C118.9 19.4442 119.896 19.1802 120.928 19.1802ZM120.724 24.6522C121.456 24.6522 122.092 24.3162 122.344 23.6562V22.9122H120.796C119.776 22.9122 119.5 23.2962 119.5 23.7642C119.5 24.3042 119.956 24.6522 120.724 24.6522ZM130.212 19.2522H131.652L128.652 26.1762C128.064 27.6282 127.248 28.0722 126.18 28.0722C125.544 28.0722 124.872 27.8562 124.464 27.4842L125.064 26.3802C125.352 26.6562 125.76 26.8242 126.168 26.8242C126.696 26.8242 127.008 26.5722 127.296 25.9362L127.404 25.6842L124.608 19.2522H126.168L128.184 23.9922L130.212 19.2522Z" fill="white"/>
</svg>
