<svg width="156" height="33" viewBox="0 0 156 33" fill="none" xmlns="http://www.w3.org/2000/svg">
<rect y="0.660156" width="156" height="32" rx="4" fill="#212020"/>
<path d="M40 21.0595C39.7014 22.0167 39.2304 22.9738 38.5872 23.931C37.5994 25.4318 36.6155 26.1822 35.6353 26.1822C35.2601 26.1822 34.7241 26.0597 34.0273 25.8147C33.3687 25.5697 32.7906 25.4471 32.2929 25.4471C31.8258 25.4471 31.2821 25.5735 30.6619 25.8262C30.0416 26.0865 29.5363 26.2167 29.1457 26.2167C27.9818 26.2167 26.8294 25.2251 25.6884 23.2418C24.5628 21.2433 24 19.3174 24 17.4644C24 15.7185 24.4326 14.2866 25.2979 13.1686C26.1632 12.066 27.2505 11.5146 28.5599 11.5146C29.1113 11.5146 29.7889 11.6295 30.593 11.8592C31.3893 12.0889 31.9177 12.2038 32.178 12.2038C32.5226 12.2038 33.0701 12.0736 33.8205 11.8133C34.6016 11.5529 35.2639 11.4227 35.8076 11.4227C36.7188 11.4227 37.5343 11.6716 38.2541 12.1693C38.6523 12.445 39.0505 12.8279 39.4487 13.3179C38.8437 13.831 38.4073 14.2828 38.1393 14.6733C37.6415 15.3931 37.3927 16.1856 37.3927 17.0509C37.3927 18.0004 37.6569 18.8542 38.1852 19.6123C38.7136 20.3703 39.3185 20.8527 40 21.0595ZM35.6813 7.58642C35.6813 8.05351 35.5702 8.57421 35.3482 9.14851C35.1184 9.72281 34.7624 10.2512 34.28 10.7336C33.8665 11.1471 33.453 11.4227 33.0395 11.5606C32.7562 11.6448 32.358 11.7099 31.8449 11.7558C31.8679 10.6149 32.1665 9.63092 32.7408 8.80393C33.3075 7.9846 34.2647 7.41795 35.6123 7.104C35.62 7.12698 35.6296 7.16909 35.6411 7.23035C35.6525 7.29161 35.6621 7.33372 35.6698 7.3567C35.6698 7.38733 35.6717 7.42561 35.6755 7.47156C35.6793 7.5175 35.6813 7.55579 35.6813 7.58642Z" fill="white"/>
<path d="M59.84 11.6602V6.06016H62.2C64 6.06016 65.224 7.19616 65.224 8.86016C65.224 10.5242 64 11.6602 62.2 11.6602H59.84ZM60.64 10.9642H62.152C63.536 10.9642 64.424 10.1162 64.424 8.86016C64.424 7.60416 63.536 6.75616 62.152 6.75616H60.64V10.9642ZM69.8494 9.56416C69.8494 9.62816 69.8414 9.72416 69.8334 9.79616H66.3934C66.4894 10.5402 67.0894 11.0362 67.9294 11.0362C68.4254 11.0362 68.8414 10.8682 69.1534 10.5242L69.5774 11.0202C69.1934 11.4682 68.6094 11.7082 67.9054 11.7082C66.5374 11.7082 65.6254 10.8042 65.6254 9.54016C65.6254 8.28416 66.5294 7.38016 67.7534 7.38016C68.9774 7.38016 69.8494 8.26016 69.8494 9.56416ZM67.7534 8.02816C67.0174 8.02816 66.4734 8.52416 66.3934 9.24416H69.1134C69.0334 8.53216 68.4974 8.02816 67.7534 8.02816ZM71.8118 11.7082C71.1078 11.7082 70.4118 11.4922 70.0598 11.2122L70.3798 10.6042C70.7398 10.8602 71.3158 11.0442 71.8678 11.0442C72.5798 11.0442 72.8758 10.8282 72.8758 10.4682C72.8758 9.51616 70.1958 10.3402 70.1958 8.65216C70.1958 7.89216 70.8758 7.38016 71.9638 7.38016C72.5158 7.38016 73.1398 7.52416 73.5078 7.76416L73.1798 8.37216C72.7958 8.12416 72.3718 8.03616 71.9558 8.03616C71.2838 8.03616 70.9558 8.28416 70.9558 8.62016C70.9558 9.62016 73.6438 8.80416 73.6438 10.4522C73.6438 11.2202 72.9398 11.7082 71.8118 11.7082ZM76.1316 11.7082C74.8276 11.7082 73.8916 10.8042 73.8916 9.54016C73.8916 8.27616 74.8276 7.38016 76.1316 7.38016C76.8916 7.38016 77.5236 7.69216 77.8596 8.28416L77.2756 8.66016C77.0036 8.24416 76.5876 8.05216 76.1236 8.05216C75.2916 8.05216 74.6676 8.63616 74.6676 9.54016C74.6676 10.4602 75.2916 11.0362 76.1236 11.0362C76.5876 11.0362 77.0036 10.8442 77.2756 10.4282L77.8596 10.7962C77.5236 11.3882 76.8916 11.7082 76.1316 11.7082ZM80.0779 7.38016C81.2379 7.38016 81.8939 7.94016 81.8939 9.10016V11.6602H81.1659V11.1002C80.9099 11.4842 80.4379 11.7082 79.7739 11.7082C78.8139 11.7082 78.2059 11.1962 78.2059 10.4602C78.2059 9.78016 78.6459 9.22016 79.9099 9.22016H81.1259V9.06816C81.1259 8.42016 80.7499 8.04416 79.9899 8.04416C79.4859 8.04416 78.9739 8.22016 78.6459 8.50016L78.3259 7.92416C78.7659 7.57216 79.3979 7.38016 80.0779 7.38016ZM79.9019 11.1162C80.4779 11.1162 80.9339 10.8522 81.1259 10.3642V9.77216H79.9419C79.1819 9.77216 78.9659 10.0682 78.9659 10.4282C78.9659 10.8522 79.3179 11.1162 79.9019 11.1162ZM83.7312 8.13216C84.0032 7.63616 84.5312 7.38016 85.2752 7.38016V8.12416C85.2112 8.11616 85.1552 8.11616 85.0992 8.11616C84.2752 8.11616 83.7632 8.62016 83.7632 9.54816V11.6602H82.9952V7.42016H83.7312V8.13216ZM89.1907 7.42016H89.9187V11.0842C89.9187 12.5802 89.1587 13.2602 87.7187 13.2602C86.9427 13.2602 86.1587 13.0442 85.6947 12.6282L86.0627 12.0362C86.4547 12.3722 87.0707 12.5882 87.6947 12.5882C88.6947 12.5882 89.1507 12.1242 89.1507 11.1642V10.8282C88.7827 11.2682 88.2307 11.4842 87.6227 11.4842C86.3987 11.4842 85.4707 10.6522 85.4707 9.42816C85.4707 8.20416 86.3987 7.38016 87.6227 7.38016C88.2547 7.38016 88.8307 7.61216 89.1907 8.07616V7.42016ZM87.7107 10.8122C88.5587 10.8122 89.1667 10.2442 89.1667 9.42816C89.1667 8.60416 88.5587 8.05216 87.7107 8.05216C86.8547 8.05216 86.2467 8.60416 86.2467 9.42816C86.2467 10.2442 86.8547 10.8122 87.7107 10.8122ZM92.6101 7.38016C93.7701 7.38016 94.4261 7.94016 94.4261 9.10016V11.6602H93.6981V11.1002C93.4421 11.4842 92.9701 11.7082 92.3061 11.7082C91.3461 11.7082 90.7381 11.1962 90.7381 10.4602C90.7381 9.78016 91.1781 9.22016 92.4421 9.22016H93.6581V9.06816C93.6581 8.42016 93.2821 8.04416 92.5221 8.04416C92.0181 8.04416 91.5061 8.22016 91.1781 8.50016L90.8581 7.92416C91.2981 7.57216 91.9301 7.38016 92.6101 7.38016ZM92.4341 11.1162C93.0101 11.1162 93.4661 10.8522 93.6581 10.3642V9.77216H92.4741C91.7141 9.77216 91.4981 10.0682 91.4981 10.4282C91.4981 10.8522 91.8501 11.1162 92.4341 11.1162ZM101.188 9.56416C101.188 9.62816 101.18 9.72416 101.172 9.79616H97.7318C97.8278 10.5402 98.4278 11.0362 99.2678 11.0362C99.7638 11.0362 100.18 10.8682 100.492 10.5242L100.916 11.0202C100.532 11.4682 99.9478 11.7082 99.2438 11.7082C97.8758 11.7082 96.9638 10.8042 96.9638 9.54016C96.9638 8.28416 97.8678 7.38016 99.0918 7.38016C100.316 7.38016 101.188 8.26016 101.188 9.56416ZM99.0918 8.02816C98.3558 8.02816 97.8118 8.52416 97.7318 9.24416H100.452C100.372 8.53216 99.8358 8.02816 99.0918 8.02816ZM104.198 7.38016C105.23 7.38016 105.958 7.97216 105.958 9.22016V11.6602H105.19V9.30816C105.19 8.47616 104.774 8.06816 104.046 8.06816C103.23 8.06816 102.702 8.55616 102.702 9.47616V11.6602H101.934V7.42016H102.67V8.06016C102.982 7.62816 103.526 7.38016 104.198 7.38016Z" fill="white"/>
<path d="M66.416 25.6602L65.576 23.7162H61.376L60.548 25.6602H58.94L62.72 17.2602H64.256L68.048 25.6602H66.416ZM61.904 22.4922H65.06L63.476 18.8202L61.904 22.4922ZM72.5243 19.1802C74.3963 19.1802 75.7763 20.4762 75.7763 22.4562C75.7763 24.4482 74.3963 25.7442 72.5243 25.7442C71.7083 25.7442 70.9883 25.4682 70.4723 24.8802V27.9882H68.9723V19.2522H70.4003V20.0922C70.9043 19.4802 71.6483 19.1802 72.5243 19.1802ZM72.3563 24.4602C73.4363 24.4602 74.2523 23.6802 74.2523 22.4562C74.2523 21.2322 73.4363 20.4522 72.3563 20.4522C71.2763 20.4522 70.4483 21.2322 70.4483 22.4562C70.4483 23.6802 71.2763 24.4602 72.3563 24.4602ZM80.7508 19.1802C82.6228 19.1802 84.0028 20.4762 84.0028 22.4562C84.0028 24.4482 82.6228 25.7442 80.7508 25.7442C79.9348 25.7442 79.2148 25.4682 78.6988 24.8802V27.9882H77.1988V19.2522H78.6268V20.0922C79.1308 19.4802 79.8748 19.1802 80.7508 19.1802ZM80.5828 24.4602C81.6628 24.4602 82.4788 23.6802 82.4788 22.4562C82.4788 21.2322 81.6628 20.4522 80.5828 20.4522C79.5028 20.4522 78.6748 21.2322 78.6748 22.4562C78.6748 23.6802 79.5028 24.4602 80.5828 24.4602ZM85.4254 25.6602V16.7562H86.9254V25.6602H85.4254ZM94.9182 22.4922C94.9182 22.6122 94.9062 22.7922 94.8942 22.9362H89.8662C90.0462 23.8722 90.8262 24.4722 91.9422 24.4722C92.6622 24.4722 93.2262 24.2442 93.6822 23.7762L94.4862 24.7002C93.9102 25.3842 93.0102 25.7442 91.9062 25.7442C89.7582 25.7442 88.3662 24.3642 88.3662 22.4562C88.3662 20.5482 89.7702 19.1802 91.6782 19.1802C93.5502 19.1802 94.9182 20.4882 94.9182 22.4922ZM91.6782 20.3802C90.7062 20.3802 89.9982 21.0042 89.8542 21.9402H93.4902C93.3702 21.0162 92.6622 20.3802 91.6782 20.3802ZM102.423 25.7802C101.115 25.7802 99.8074 25.3722 99.1114 24.7722L99.6514 23.5602C100.323 24.1002 101.391 24.4842 102.423 24.4842C103.731 24.4842 104.283 24.0162 104.283 23.3922C104.283 21.5802 99.2914 22.7682 99.2914 19.6482C99.2914 18.2922 100.371 17.1402 102.675 17.1402C103.683 17.1402 104.739 17.4042 105.471 17.8842L104.979 19.0962C104.223 18.6522 103.395 18.4362 102.663 18.4362C101.367 18.4362 100.839 18.9402 100.839 19.5762C100.839 21.3642 105.819 20.2002 105.819 23.2842C105.819 24.6282 104.727 25.7802 102.423 25.7802ZM110.654 24.2442L111.074 25.3122C110.714 25.6002 110.174 25.7442 109.634 25.7442C108.23 25.7442 107.426 25.0002 107.426 23.5842V20.5002H106.37V19.3002H107.426V17.8362H108.926V19.3002H110.642V20.5002H108.926V23.5482C108.926 24.1722 109.238 24.5082 109.814 24.5082C110.126 24.5082 110.426 24.4242 110.654 24.2442ZM114.977 25.7442C113.009 25.7442 111.569 24.3762 111.569 22.4562C111.569 20.5362 113.009 19.1802 114.977 19.1802C116.969 19.1802 118.397 20.5362 118.397 22.4562C118.397 24.3762 116.969 25.7442 114.977 25.7442ZM114.977 24.4602C116.069 24.4602 116.885 23.6802 116.885 22.4562C116.885 21.2322 116.069 20.4522 114.977 20.4522C113.897 20.4522 113.081 21.2322 113.081 22.4562C113.081 23.6802 113.897 24.4602 114.977 24.4602ZM121.26 20.1882C121.692 19.5162 122.472 19.1802 123.54 19.1802V20.6082C123.408 20.5842 123.3 20.5722 123.192 20.5722C122.052 20.5722 121.332 21.2442 121.332 22.5522V25.6602H119.832V19.2522H121.26V20.1882ZM130.778 22.4922C130.778 22.6122 130.766 22.7922 130.754 22.9362H125.726C125.906 23.8722 126.686 24.4722 127.802 24.4722C128.522 24.4722 129.086 24.2442 129.542 23.7762L130.346 24.7002C129.77 25.3842 128.87 25.7442 127.766 25.7442C125.618 25.7442 124.226 24.3642 124.226 22.4562C124.226 20.5482 125.63 19.1802 127.538 19.1802C129.41 19.1802 130.778 20.4882 130.778 22.4922ZM127.538 20.3802C126.566 20.3802 125.858 21.0042 125.714 21.9402H129.35C129.23 21.0162 128.522 20.3802 127.538 20.3802Z" fill="white"/>
</svg>
