<svg width="26" height="27" viewBox="0 0 26 27" fill="none" xmlns="http://www.w3.org/2000/svg">
<g id="Icon">
<path id="Vector" d="M6.64734 20.0918V20.1182L6.33093 23.2295V23.2559V23.4141C6.33093 23.8008 6.46716 24.1304 6.73962 24.4028C7.01208 24.6753 7.33289 24.8115 7.70203 24.8115H7.75476L18.5917 24.7852C18.9784 24.7852 19.308 24.6489 19.5804 24.3765C19.8529 24.104 19.9891 23.7744 19.9891 23.3877L19.9628 23.2031V23.1768L19.62 20.0654C19.5321 19.4326 19.2509 18.9097 18.7762 18.4966C18.3016 18.0835 17.7391 17.877 17.0887 17.877H9.17859C8.54578 17.877 7.98767 18.0879 7.50427 18.5098C7.02087 18.9316 6.73523 19.4502 6.64734 20.0654V20.0918ZM4.48523 19.8281C4.64343 18.668 5.16638 17.6924 6.05408 16.9014C6.94177 16.1104 7.98328 15.7061 9.17859 15.6885H17.0887C18.2841 15.6885 19.3256 16.0796 20.2133 16.8618C21.101 17.644 21.6239 18.6152 21.7821 19.7754L21.8085 19.8281L22.1512 22.9658H22.1249C22.1249 23.0186 22.1293 23.0845 22.1381 23.1636C22.1469 23.2427 22.1512 23.3262 22.1512 23.4141C22.1512 24.3984 21.8041 25.2378 21.1097 25.9321C20.4154 26.6265 19.576 26.9736 18.5917 26.9736C18.5917 26.9736 18.5829 26.9736 18.5653 26.9736L7.67566 27C6.70886 26.9824 5.8783 26.6265 5.18396 25.9321C4.48962 25.2378 4.14246 24.3984 4.14246 23.4141C4.14246 23.4141 4.14246 23.4053 4.14246 23.3877C4.14246 23.3701 4.14246 23.3613 4.14246 23.3613C4.14246 23.291 4.14685 23.2251 4.15564 23.1636C4.16443 23.1021 4.16882 23.0449 4.16882 22.9922V22.9658L4.48523 19.8809V19.8545V19.8281ZM13.0282 0C11.868 0 10.787 0.219727 9.78503 0.65918C8.78308 1.09863 7.90417 1.69629 7.14832 2.45215C6.39246 3.20801 5.7948 4.08691 5.35535 5.08887C4.91589 6.1084 4.69617 7.18945 4.69617 8.33203C4.69617 8.33203 4.69617 8.33643 4.69617 8.34521C4.69617 8.354 4.69617 8.36719 4.69617 8.38477C4.69617 8.38477 4.69617 8.38916 4.69617 8.39795C4.69617 8.40674 4.69617 8.41992 4.69617 8.4375C4.69617 8.4375 4.69617 8.44629 4.69617 8.46387C4.69617 8.48145 4.69617 8.49902 4.69617 8.5166C4.69617 8.53418 4.69617 8.55176 4.69617 8.56934C4.69617 8.58691 4.69617 8.60449 4.69617 8.62207C4.69617 8.74512 4.79724 9.26807 4.99939 10.1909C5.20154 11.1138 5.68933 11.8564 6.46277 12.4189C6.69128 12.5947 6.95056 12.731 7.2406 12.8276C7.53064 12.9243 7.83386 12.9727 8.15027 12.9727C8.15027 12.9727 8.15466 12.9727 8.16345 12.9727C8.17224 12.9727 8.17664 12.9727 8.17664 12.9727C8.35242 12.9727 8.5282 12.9595 8.70398 12.9331C8.87976 12.9067 9.04675 12.8672 9.20496 12.8145C9.27527 12.7969 9.34119 12.7705 9.40271 12.7354C9.46423 12.7002 9.51257 12.6562 9.54773 12.6035C10.0399 13.0254 10.5936 13.3594 11.2089 13.6055C11.8241 13.8516 12.4745 13.9746 13.16 13.9746C13.9159 13.9746 14.6278 13.8252 15.2958 13.5264C15.9637 13.2451 16.5482 12.854 17.0492 12.353C17.5502 11.8521 17.9413 11.2764 18.2225 10.626C18.5038 9.95801 18.6444 9.24609 18.6444 8.49023C18.6444 7.7168 18.5038 7.00488 18.2225 6.35449C17.9413 5.68652 17.5502 5.10205 17.0492 4.60107C16.5482 4.1001 15.9637 3.70898 15.2958 3.42773C14.6278 3.12891 13.9159 2.97949 13.16 2.97949C12.4042 2.97949 11.6923 3.12891 11.0243 3.42773C10.3563 3.70898 9.77625 4.1001 9.28406 4.60107C8.79187 5.10205 8.40515 5.68652 8.1239 6.35449C7.82507 7.00488 7.67566 7.7168 7.67566 8.49023C7.67566 8.96484 7.73718 9.43066 7.86023 9.8877C7.98328 10.3447 8.15906 10.7666 8.38757 11.1533C8.35242 11.1533 8.31726 11.1533 8.2821 11.1533C8.24695 11.1533 8.21179 11.1533 8.17664 11.1533C8.05359 11.1533 7.93494 11.1357 7.82068 11.1006C7.70642 11.0654 7.60535 11.0127 7.51746 10.9424C7.14832 10.6787 6.88904 10.2656 6.73962 9.70312C6.59021 9.14062 6.50671 8.73633 6.48914 8.49023C6.48914 8.49023 6.48914 8.48145 6.48914 8.46387C6.48914 8.44629 6.48914 8.4375 6.48914 8.4375C6.48914 8.41992 6.49353 8.40674 6.50232 8.39795C6.51111 8.38916 6.5155 8.38477 6.5155 8.38477C6.5155 8.36719 6.51111 8.354 6.50232 8.34521C6.49353 8.33643 6.48914 8.33203 6.48914 8.33203C6.48914 7.41797 6.66492 6.56543 7.01648 5.77441C7.35046 4.9834 7.81189 4.29346 8.40076 3.70459C8.98962 3.11572 9.68835 2.6543 10.4969 2.32031C11.288 1.96875 12.1317 1.79297 13.0282 1.79297C13.9247 1.79297 14.7684 1.96875 15.5594 2.32031C16.3505 2.6543 17.0404 3.11572 17.6293 3.70459C18.2181 4.29346 18.6884 4.9834 19.0399 5.77441C19.3739 6.58301 19.5409 7.43555 19.5409 8.33203C19.5585 8.56055 19.6552 8.7583 19.8309 8.92529C20.0067 9.09229 20.2089 9.17578 20.4374 9.17578C20.6835 9.17578 20.8944 9.09229 21.0702 8.92529C21.246 8.7583 21.3427 8.56055 21.3602 8.33203C21.3427 7.17188 21.1229 6.09082 20.701 5.08887C20.2616 4.08691 19.6639 3.20801 18.9081 2.45215C18.1522 1.69629 17.2733 1.09863 16.2714 0.65918C15.2518 0.219727 14.1708 0 13.0282 0ZM13.1864 5.16797C14.1005 5.16797 14.8783 5.49316 15.5199 6.14355C16.1615 6.79395 16.4823 7.57617 16.4823 8.49023C16.4823 9.4043 16.1571 10.1821 15.5067 10.8237C14.8563 11.4653 14.0741 11.7861 13.16 11.7861C12.246 11.7861 11.4681 11.4653 10.8265 10.8237C10.1849 10.1821 9.86414 9.4043 9.86414 8.49023C9.86414 8.49023 9.86414 8.48584 9.86414 8.47705C9.86414 8.46826 9.86414 8.46387 9.86414 8.46387C9.86414 7.5498 10.1893 6.77197 10.8397 6.13037C11.4901 5.48877 12.2635 5.16797 13.16 5.16797C13.16 5.16797 13.1644 5.16797 13.1732 5.16797C13.182 5.16797 13.1864 5.16797 13.1864 5.16797Z" fill="#999999"/>
</g>
</svg>
