<svg width="29" height="31" viewBox="0 0 29 31" fill="none" xmlns="http://www.w3.org/2000/svg">
<g clip-path="url(#clip0_1207_1512)">
<path d="M14.3575 1.44502C12.3444 1.44502 10.4503 1.83849 8.67508 2.62543C6.89991 3.41236 5.41754 4.4372 4.22799 5.69995C3.03844 6.96271 2.09595 8.43592 1.40052 10.1196C0.705091 11.8033 0.329925 13.5235 0.275023 15.2804C0.220121 17.0373 0.540384 18.8125 1.23581 20.6059C1.93124 22.3994 2.99269 24.0099 4.42015 25.4373C5.84761 26.8648 7.45808 27.9263 9.25156 28.6217C11.045 29.3171 12.8202 29.6374 14.5771 29.5825C16.334 29.5276 18.0542 29.1524 19.7379 28.457C21.4216 27.7615 22.8948 26.8191 24.1575 25.6295C25.4203 24.44 26.4451 22.9576 27.2321 21.1824C28.019 19.4072 28.4125 17.5131 28.4125 15.5C28.4125 11.6203 27.0399 8.30782 24.2948 5.5627C21.5497 2.81758 18.2372 1.44502 14.3575 1.44502ZM10.5143 23.6256C10.3679 22.7105 10.3862 21.6857 10.5692 20.551L11.7771 15.3353C11.5575 14.8595 11.4476 14.3288 11.4476 13.7431C11.4476 13.0477 11.6398 12.4529 12.0241 11.9588C12.4084 11.4647 12.8568 11.2176 13.3692 11.2176C13.7718 11.2176 14.1196 11.364 14.4124 11.6569C14.632 11.9497 14.7418 12.2974 14.7418 12.7C14.7418 13.0294 14.6137 13.6333 14.3575 14.5118C14.1013 15.3902 13.9366 15.9575 13.8634 16.2138C13.6803 16.6896 13.7718 17.1288 14.1379 17.5314C14.5039 17.934 14.9248 18.117 15.4006 18.0804C16.3523 18.0804 17.1483 17.6321 17.7889 16.7353C18.4294 15.8386 18.7497 14.6948 18.7497 13.3039C18.7497 12.0595 18.3287 11.0163 17.4869 10.1745C16.5719 9.29606 15.5104 8.89344 14.3026 8.96665C13.0215 8.89344 11.9052 9.31436 10.9535 10.2294C10.0019 11.1078 9.52607 12.2242 9.52607 13.5784C9.52607 14.4935 9.80058 15.2987 10.3496 15.9941C10.4228 16.0673 10.4411 16.1589 10.4045 16.2687C10.2215 16.8177 10.13 17.2203 10.13 17.4765C10.0568 17.6595 9.92869 17.6961 9.74568 17.5863C9.12345 17.2935 8.61103 16.7445 8.20841 15.9392C7.80579 15.134 7.60449 14.3288 7.60449 13.5235C7.60449 11.7667 8.21756 10.266 9.44372 9.02155C10.6699 7.77709 12.381 7.15487 14.5771 7.15487C16.4438 7.15487 17.9993 7.73134 19.2438 8.88429C20.4882 10.0372 21.1105 11.4922 21.1105 13.249C21.1105 15.0791 20.5889 16.6255 19.5457 17.8883C18.5026 19.151 17.1941 19.7824 15.6202 19.7824C14.5954 19.8556 13.7902 19.453 13.2045 18.5746C12.8385 19.9288 12.6189 20.7706 12.5457 21.1001C12.2163 22.1249 11.7771 23.0399 11.228 23.8452C11.1548 23.8452 11.0359 23.8086 10.8712 23.7354C10.7065 23.6622 10.5875 23.6256 10.5143 23.6256Z" fill="white"/>
</g>
<defs>
<clipPath id="clip0_1207_1512">
<rect width="28.11" height="30" fill="white" transform="matrix(1 0 0 -1 0.275024 30.5)"/>
</clipPath>
</defs>
</svg>
