<svg width="30" height="32" viewBox="0 0 30 32" fill="none" xmlns="http://www.w3.org/2000/svg">
<path d="M21.9852 12.9148V13.3223C21.9852 15.1461 21.5292 16.8148 20.6173 18.3282C19.7054 19.8417 18.4733 21.0252 16.921 21.879C15.33 22.7327 13.6516 23.1305 11.8859 23.0723C10.1203 23.0141 8.48072 22.4999 6.96729 21.5297C7.27774 21.6073 7.54938 21.6073 7.78222 21.5297C9.33445 21.5297 10.7509 21.0447 12.0315 20.0745C10.4016 19.9969 9.33445 19.2014 8.82998 17.6879C9.37326 17.8044 9.89714 17.7849 10.4016 17.6297C9.6255 17.4745 8.9755 17.0767 8.45162 16.4364C7.92774 15.7961 7.6658 15.0685 7.6658 14.2536C8.05386 14.4864 8.57774 14.6417 9.23744 14.7193C8.50013 14.2148 8.02475 13.5163 7.81132 12.6238C7.59789 11.7312 7.7046 10.8969 8.13147 10.1208C9.91654 12.3327 12.2837 13.5357 15.233 13.7297C15.0389 12.9536 15.0971 12.2066 15.4076 11.4887C15.718 10.7708 16.2225 10.2178 16.921 9.82973C17.6195 9.44167 18.3471 9.31555 19.1039 9.45137C19.8606 9.58719 20.5106 9.94614 21.0539 10.5282C21.9464 10.3342 22.6837 10.0626 23.2658 9.71331C23.033 10.5282 22.5285 11.1879 21.7524 11.6924C22.4897 11.576 23.1494 11.382 23.7315 11.1103C23.227 11.8864 22.6449 12.4879 21.9852 12.9148ZM15.0001 1.09838C10.8867 1.09838 7.37475 2.5536 4.4643 5.46405C1.55386 8.3745 0.0986328 11.8864 0.0986328 15.9999C0.0986328 20.1133 1.55386 23.6252 4.4643 26.5357C7.37475 29.4461 10.8867 30.9014 15.0001 30.9014C19.1136 30.9014 22.6255 29.4461 25.5359 26.5357C28.4464 23.6252 29.9016 20.1133 29.9016 15.9999C29.9016 11.8864 28.4464 8.3745 25.5359 5.46405C22.6255 2.5536 19.1136 1.09838 15.0001 1.09838Z" fill="#F70759"/>
</svg>
