<svg width="20" height="20" viewBox="0 0 20 20" fill="none" xmlns="http://www.w3.org/2000/svg">
<g id="Link">
<path id="Vector" d="M2.45325 6.52344H2.41418C2.07564 6.52344 1.79244 6.64062 1.56458 6.875C1.33671 7.10938 1.22278 7.38932 1.22278 7.71484V12.9102C1.22278 13.2357 1.33671 13.5156 1.56458 13.75C1.79244 13.9844 2.07564 14.1016 2.41418 14.1016H2.45325C2.79179 14.1016 3.07499 13.9844 3.30286 13.75C3.53072 13.5156 3.64465 13.2357 3.64465 12.9102V7.71484C3.64465 7.38932 3.53072 7.10938 3.30286 6.875C3.07499 6.64062 2.79179 6.52344 2.45325 6.52344ZM4.23059 14.9023C4.23059 15.2148 4.33801 15.4753 4.55286 15.6836C4.7677 15.8919 5.02486 15.9961 5.32434 15.9961H6.49622V18.8086C6.49622 19.1341 6.6134 19.4141 6.84778 19.6484C7.08215 19.8828 7.3621 20 7.68762 20H7.74622C8.07174 20 8.35168 19.8828 8.58606 19.6484C8.82043 19.4141 8.93762 19.1341 8.93762 18.8086V15.9961H10.5782V18.8086C10.5782 19.1341 10.6922 19.4141 10.92 19.6484C11.1479 19.8828 11.4311 20 11.7697 20H11.8087C12.1473 20 12.4305 19.8828 12.6583 19.6484C12.8862 19.4141 13.0001 19.1341 13.0001 18.8086V15.9961H14.172C14.4845 15.9961 14.7449 15.8919 14.9532 15.6836C15.1616 15.4753 15.2657 15.2148 15.2657 14.9023V6.71875H4.23059V14.9023ZM12.5118 1.73828L13.4298 0.3125C13.4428 0.299479 13.4526 0.283203 13.4591 0.263672C13.4656 0.244141 13.4689 0.227865 13.4689 0.214844C13.4689 0.175781 13.4591 0.139975 13.4396 0.107422C13.42 0.0748692 13.3973 0.052084 13.3712 0.0390625C13.3582 0.026041 13.3419 0.0162754 13.3224 0.00976562C13.3029 0.00325584 13.2866 0 13.2736 0C13.2345 0 13.2019 0.00976562 13.1759 0.0292969C13.1499 0.0488281 13.1238 0.0716152 13.0978 0.0976562L12.1407 1.58203C11.7892 1.4388 11.4116 1.32487 11.0079 1.24023C10.6043 1.1556 10.1876 1.11328 9.75793 1.11328C9.32825 1.11328 8.90833 1.1556 8.49817 1.24023C8.08801 1.32487 7.69413 1.44531 7.31653 1.60156L7.37512 1.58203L6.39856 0.0976562C6.38554 0.0716152 6.36601 0.052084 6.33997 0.0390625C6.31392 0.026041 6.28137 0.0195312 6.24231 0.0195312C6.19023 0.0195312 6.14465 0.0390625 6.10559 0.078125C6.06653 0.117188 6.047 0.16276 6.047 0.214844C6.047 0.227865 6.05025 0.244141 6.05676 0.263672C6.06327 0.283203 6.06653 0.299479 6.06653 0.3125L7.00403 1.73828C6.19674 2.10287 5.53593 2.65625 5.02161 3.39844C4.50728 4.14062 4.23059 4.96745 4.19153 5.87891V5.89844C4.19153 5.95052 4.19153 6.0026 4.19153 6.05469C4.19153 6.10677 4.19804 6.15885 4.21106 6.21094H15.3048C15.3048 6.15885 15.3048 6.10677 15.3048 6.05469C15.3048 6.0026 15.3048 5.95052 15.3048 5.89844C15.2788 4.97396 15.0086 4.14062 14.4943 3.39844C13.9799 2.65625 13.3256 2.10938 12.5314 1.75781L12.5118 1.73828ZM7.17981 4.31641C7.03658 4.31641 6.91288 4.26432 6.80872 4.16016C6.70455 4.05599 6.65247 3.93229 6.65247 3.78906C6.65247 3.63281 6.70455 3.5026 6.80872 3.39844C6.91288 3.29427 7.03658 3.24219 7.17981 3.24219C7.33606 3.24219 7.46627 3.29427 7.57043 3.39844C7.6746 3.5026 7.72668 3.63281 7.72668 3.78906C7.72668 3.93229 7.6746 4.05599 7.57043 4.16016C7.46627 4.26432 7.33606 4.31641 7.17981 4.31641ZM12.3165 4.31641C12.1733 4.31641 12.0496 4.26432 11.9454 4.16016C11.8413 4.05599 11.7892 3.93229 11.7892 3.78906C11.7892 3.63281 11.8413 3.5026 11.9454 3.39844C12.0496 3.29427 12.1733 3.24219 12.3165 3.24219C12.4728 3.24219 12.603 3.29427 12.7072 3.39844C12.8113 3.5026 12.8634 3.63281 12.8634 3.78906C12.8634 3.93229 12.8113 4.05599 12.7072 4.16016C12.603 4.26432 12.4728 4.31641 12.3165 4.31641ZM17.0822 6.52344H17.0236C16.698 6.52344 16.4181 6.64062 16.1837 6.875C15.9493 7.10938 15.8322 7.38932 15.8322 7.71484V12.9102C15.8322 13.2357 15.9493 13.5156 16.1837 13.75C16.4181 13.9844 16.698 14.1016 17.0236 14.1016H17.0822C17.4077 14.1016 17.6876 13.9844 17.922 13.75C18.1564 13.5156 18.2736 13.2357 18.2736 12.9102V7.71484C18.2736 7.38932 18.1596 7.10938 17.9318 6.875C17.7039 6.64062 17.4207 6.52344 17.0822 6.52344Z" fill="#CCCCCC"/>
</g>
</svg>
