<svg width="25" height="26" viewBox="0 0 25 26" fill="none" xmlns="http://www.w3.org/2000/svg">
<g opacity="0.6" clip-path="url(#clip0_1448_1208)">
<path d="M15.6069 7.00433H8.70751C7.9462 7.00433 7.29591 7.27396 6.75665 7.81322C6.21739 8.35248 5.94775 9.01863 5.94775 9.81167V16.1877C5.94775 16.9807 6.21739 17.6468 6.75665 18.1861C7.29591 18.7254 7.96206 18.995 8.75509 18.995H15.6545C16.4158 18.995 17.0661 18.7174 17.6054 18.1623C18.1446 17.6072 18.4142 16.949 18.4142 16.1877V9.81167C18.4142 9.01863 18.1446 8.35248 17.6054 7.81322C17.0661 7.27396 16.3999 7.00433 15.6069 7.00433ZM14.6077 15.4263C14.6077 15.4263 14.4411 15.5929 14.1081 15.926C13.775 16.259 13.1326 16.4256 12.181 16.4256C11.2294 16.4256 10.4125 16.0925 9.73053 15.4263C9.04852 14.7602 8.70751 13.9354 8.70751 12.9521C8.70751 12.0004 9.04852 11.1915 9.73053 10.5254C10.4125 9.85925 11.2294 9.52617 12.181 9.52617C13.1326 9.52617 13.9415 9.85925 14.6077 10.5254C15.2738 11.1915 15.6069 12.0004 15.6069 12.9521C15.6069 13.9354 15.2738 14.7602 14.6077 15.4263ZM15.6069 10.2399C15.2897 10.2399 15.0518 10.0654 14.8932 9.7165C14.7346 9.43101 14.798 9.14552 15.0835 8.86003C15.3373 8.60626 15.6228 8.55867 15.94 8.71728C16.3206 8.87589 16.4792 9.12966 16.4158 9.47859C16.4158 9.70064 16.3365 9.88304 16.1779 10.0258C16.0193 10.1685 15.829 10.2399 15.6069 10.2399ZM13.8226 11.3581C13.8226 11.3581 13.7076 11.2431 13.4776 11.0131C13.2476 10.7831 12.8154 10.6681 12.181 10.6681C11.5466 10.6681 10.9994 10.8981 10.5394 11.3581C10.0795 11.818 9.84948 12.3652 9.84948 12.9997C9.84948 13.6341 10.0795 14.1813 10.5394 14.6412C10.9994 15.1012 11.5466 15.3312 12.181 15.3312C12.8154 15.3312 13.3626 15.1012 13.8226 14.6412C14.2825 14.1813 14.5125 13.6341 14.5125 12.9997C14.5125 12.3652 14.2825 11.818 13.8226 11.3581ZM20.7933 4.38732C20.7933 4.38732 20.1986 3.79254 19.009 2.60299C17.8195 1.41344 15.5435 0.818663 12.181 0.818663C8.81854 0.818663 5.94775 2.00821 3.56865 4.38732C1.18955 6.76642 0 9.6372 0 12.9997C0 16.3621 1.18955 19.2329 3.56865 21.612C5.94775 23.9911 8.81854 25.1807 12.181 25.1807C15.5435 25.1807 18.4142 23.9911 20.7933 21.612C23.1725 19.2329 24.362 16.3621 24.362 12.9997C24.362 9.6372 23.1725 6.76642 20.7933 4.38732ZM19.5086 16.1877C19.5086 17.2662 19.128 18.1861 18.3667 18.9474C17.6054 19.7087 16.6854 20.0894 15.6069 20.0894H8.70751C7.62899 20.0894 6.70907 19.7087 5.94775 18.9474C5.18644 18.1861 4.80579 17.2662 4.80579 16.1877V9.81167C4.80579 8.73314 5.18644 7.81322 5.94775 7.05191C6.70907 6.2906 7.64485 5.90994 8.75509 5.90994H15.6545C16.733 5.90994 17.6529 6.2906 18.4142 7.05191C19.1756 7.81322 19.5562 8.73314 19.5562 9.81167L19.5086 16.1877Z" fill="#999999"/>
</g>
<defs>
<clipPath id="clip0_1448_1208">
<rect width="24.362" height="26" fill="white" transform="matrix(1 0 0 -1 0 26)"/>
</clipPath>
</defs>
</svg>
