<svg width="29" height="31" viewBox="0 0 29 31" fill="none" xmlns="http://www.w3.org/2000/svg">
<g clip-path="url(#clip0_1207_1500)">
<path d="M18.623 8.58236H10.6621C9.78368 8.58236 9.03335 8.89347 8.41112 9.5157C7.7889 10.1379 7.47778 10.9066 7.47778 11.8216V19.1785C7.47778 20.0935 7.7889 20.8622 8.41112 21.4844C9.03335 22.1066 9.80198 22.4177 10.717 22.4177H18.6779C19.5563 22.4177 20.3066 22.0975 20.9289 21.457C21.5511 20.8164 21.8622 20.0569 21.8622 19.1785V11.8216C21.8622 10.9066 21.5511 10.1379 20.9289 9.5157C20.3066 8.89347 19.538 8.58236 18.623 8.58236ZM17.47 18.3001C17.47 18.3001 17.2779 18.4922 16.8935 18.8765C16.5092 19.2609 15.768 19.453 14.67 19.453C13.5719 19.453 12.6295 19.0687 11.8425 18.3001C11.0556 17.5314 10.6621 16.5798 10.6621 15.4452C10.6621 14.3471 11.0556 13.4138 11.8425 12.6451C12.6295 11.8765 13.5719 11.4922 14.67 11.4922C15.768 11.4922 16.7014 11.8765 17.47 12.6451C18.2386 13.4138 18.623 14.3471 18.623 15.4452C18.623 16.5798 18.2386 17.5314 17.47 18.3001ZM18.623 12.3157C18.2569 12.3157 17.9824 12.1144 17.7994 11.7118C17.6164 11.3824 17.6896 11.053 18.019 10.7235C18.3118 10.4307 18.6413 10.3758 19.0073 10.5588C19.4465 10.7418 19.6295 11.0347 19.5563 11.4373C19.5563 11.6935 19.4648 11.9039 19.2818 12.0687C19.0988 12.2334 18.8792 12.3157 18.623 12.3157ZM16.5641 13.6059C16.5641 13.6059 16.4314 13.4732 16.1661 13.2079C15.9007 12.9425 15.402 12.8098 14.67 12.8098C13.938 12.8098 13.3066 13.0752 12.7759 13.6059C12.2451 14.1366 11.9798 14.768 11.9798 15.5001C11.9798 16.2321 12.2451 16.8635 12.7759 17.3942C13.3066 17.9249 13.938 18.1903 14.67 18.1903C15.402 18.1903 16.0334 17.9249 16.5641 17.3942C17.0948 16.8635 17.3602 16.2321 17.3602 15.5001C17.3602 14.768 17.0948 14.1366 16.5641 13.6059ZM24.6073 5.56273C24.6073 5.56273 23.921 4.87645 22.5485 3.50389C21.1759 2.13133 18.5498 1.44505 14.67 1.44505C10.7902 1.44505 7.47778 2.81761 4.73267 5.56273C1.98755 8.30785 0.61499 11.6203 0.61499 15.5001C0.61499 19.3798 1.98755 22.6923 4.73267 25.4374C7.47778 28.1825 10.7902 29.5551 14.67 29.5551C18.5498 29.5551 21.8622 28.1825 24.6073 25.4374C27.3524 22.6923 28.725 19.3798 28.725 15.5001C28.725 11.6203 27.3524 8.30785 24.6073 5.56273ZM23.125 19.1785C23.125 20.423 22.6857 21.4844 21.8073 22.3628C20.9289 23.2413 19.8674 23.6805 18.623 23.6805H10.6621C9.41767 23.6805 8.35622 23.2413 7.47778 22.3628C6.59935 21.4844 6.16013 20.423 6.16013 19.1785V11.8216C6.16013 10.5771 6.59935 9.5157 7.47778 8.63726C8.35622 7.75882 9.43597 7.3196 10.717 7.3196H18.6779C19.9223 7.3196 20.9838 7.75882 21.8622 8.63726C22.7406 9.5157 23.1799 10.5771 23.1799 11.8216L23.125 19.1785Z" fill="white"/>
</g>
<defs>
<clipPath id="clip0_1207_1500">
<rect width="28.11" height="30" fill="white" transform="matrix(1 0 0 -1 0.61499 30.5)"/>
</clipPath>
</defs>
</svg>
