<svg width="30" height="31" viewBox="0 0 30 31" fill="none" xmlns="http://www.w3.org/2000/svg">
<g clip-path="url(#clip0_1207_1506)">
<path d="M24.9373 5.56273C24.9373 5.56273 24.2511 4.87645 22.8785 3.50389C21.5059 2.13133 18.8798 1.44505 15 1.44505C11.1202 1.44505 7.8078 2.81761 5.06268 5.56273C2.31757 8.30785 0.945007 11.6203 0.945007 15.5001C0.945007 19.3798 2.31757 22.6923 5.06268 25.4374C7.8078 28.1825 11.1202 29.5551 15 29.5551C18.8798 29.5551 22.1922 28.1825 24.9373 25.4374C27.6824 22.6923 29.055 19.3798 29.055 15.5001C29.055 11.6203 27.6824 8.30785 24.9373 5.56273ZM11.1568 22.6374H7.8078V12.9196H11.1568V22.6374ZM10.9098 10.7785C10.9098 10.7785 10.8229 10.87 10.649 11.053C10.4751 11.236 10.132 11.3275 9.61958 11.3275C9.10716 11.3275 8.67709 11.1445 8.32937 10.7785C7.98166 10.4124 7.8078 9.99152 7.8078 9.5157C7.8078 9.03988 7.98166 8.61896 8.32937 8.25294C8.67709 7.88693 9.10716 7.70392 9.61958 7.70392C10.132 7.70392 10.5621 7.88693 10.9098 8.25294C11.2575 8.61896 11.4314 9.03988 11.4314 9.5157C11.4314 9.99152 11.2575 10.4124 10.9098 10.7785ZM23.2903 22.6374H19.8863V17.3667C19.8863 17.2935 19.8863 17.2203 19.8863 17.1471C19.8863 17.0739 19.8497 16.9184 19.7765 16.6805C19.7033 16.4425 19.621 16.2321 19.5295 16.0491C19.4379 15.8661 19.2732 15.7014 19.0353 15.555C18.7974 15.4085 18.5321 15.3353 18.2392 15.3353C17.7268 15.3353 17.3334 15.5092 17.0588 15.8569C16.7843 16.2046 16.6288 16.5615 16.5922 16.9275L16.5373 17.4216V22.5825H13.1882V12.9196H16.4824V14.2373C17.0314 13.1027 17.9281 12.5719 19.1726 12.6451C20.3438 12.6451 21.3138 13.0203 22.0824 13.7706C22.851 14.521 23.2354 15.6099 23.2354 17.0373L23.2903 22.6374Z" fill="white"/>
</g>
<defs>
<clipPath id="clip0_1207_1506">
<rect width="28.11" height="30" fill="white" transform="matrix(1 0 0 -1 0.945007 30.5)"/>
</clipPath>
</defs>
</svg>
