<svg width="30" height="32" viewBox="0 0 30 32" fill="none" xmlns="http://www.w3.org/2000/svg">
<path d="M19.133 10.2954H17.1539C16.8434 10.2954 16.5524 10.4312 16.2807 10.7029C16.0479 10.9357 15.9509 11.2267 15.9897 11.576V13.7879H19.133L18.7255 16.8148H15.9897V24.7894H12.7882V16.873H10.1688V13.7879H12.7882V11.0521C12.827 10.1208 13.1568 9.31555 13.7777 8.63644C14.3986 7.95734 15.1554 7.55958 16.0479 7.44316H19.1912L19.133 10.2954ZM15.0001 1.09838C10.8867 1.09838 7.37475 2.5536 4.4643 5.46405C1.55386 8.3745 0.0986328 11.8864 0.0986328 15.9999C0.0986328 20.1133 1.55386 23.6252 4.4643 26.5357C7.37475 29.4461 10.8867 30.9014 15.0001 30.9014C19.1136 30.9014 22.6255 29.4461 25.5359 26.5357C28.4464 23.6252 29.9016 20.1133 29.9016 15.9999C29.9016 11.8864 28.4464 8.3745 25.5359 5.46405C22.6255 2.5536 19.1136 1.09838 15.0001 1.09838Z" fill="#F70759"/>
</svg>
