<svg width="25" height="26" viewBox="0 0 25 26" fill="none" xmlns="http://www.w3.org/2000/svg">
<g opacity="0.6" clip-path="url(#clip0_1448_1210)">
<path d="M15.9211 8.33662H14.3034C14.0496 8.33662 13.8117 8.44765 13.5896 8.6697C13.3993 8.86003 13.32 9.09794 13.3517 9.38343V11.1915H15.9211L15.5881 13.6658H13.3517V20.1846H10.7347V13.7134H8.59351V11.1915H10.7347V8.95519C10.7664 8.19388 11.0361 7.53566 11.5436 6.98054C12.0511 6.42541 12.6697 6.10027 13.3993 6.0051H15.9687L15.9211 8.33662ZM12.5428 0.818663C9.18035 0.818663 6.30957 2.00821 3.93047 4.38732C1.55137 6.76642 0.361816 9.6372 0.361816 12.9997C0.361816 16.3621 1.55137 19.2329 3.93047 21.612C6.30957 23.9911 9.18035 25.1807 12.5428 25.1807C15.9053 25.1807 18.7761 23.9911 21.1552 21.612C23.5343 19.2329 24.7238 16.3621 24.7238 12.9997C24.7238 9.6372 23.5343 6.76642 21.1552 4.38732C18.7761 2.00821 15.9053 0.818663 12.5428 0.818663Z" fill="#999999"/>
</g>
<defs>
<clipPath id="clip0_1448_1210">
<rect width="24.362" height="26" fill="white" transform="matrix(1 0 0 -1 0.361816 26)"/>
</clipPath>
</defs>
</svg>
