<svg width="25" height="25" viewBox="0 0 25 25" fill="none" xmlns="http://www.w3.org/2000/svg">
<path d="M13.8638 12.4954L21.373 4.9881C21.7516 4.6096 21.7516 3.99592 21.373 3.61742C20.9944 3.23892 20.3806 3.23892 20.002 3.61742L12.4927 11.1247L4.9835 3.61742C4.60223 3.24159 3.98839 3.24593 3.61246 3.62711C3.23654 4.00828 3.24088 4.62196 3.62215 4.99779L11.1314 12.5051L3.62215 20.0123C3.24355 20.3908 3.24355 21.0045 3.62215 21.383C4.00076 21.7615 4.61459 21.7615 4.9932 21.383L12.5024 13.8757L20.0117 21.383C20.3903 21.7615 21.0041 21.7615 21.3827 21.383C21.7613 21.0045 21.7613 20.3908 21.3827 20.0123L13.8638 12.4954Z" fill="white"/>
</svg>
