<svg width="25" height="26" viewBox="0 0 25 26" fill="none" xmlns="http://www.w3.org/2000/svg">
<g opacity="0.6" clip-path="url(#clip0_1448_1214)">
<path d="M20.8793 4.38732C20.8793 4.38732 20.2845 3.79254 19.095 2.60299C17.9054 1.41344 15.6294 0.818663 12.2669 0.818663C8.90447 0.818663 6.03369 2.00821 3.65459 4.38732C1.27549 6.76642 0.0859375 9.6372 0.0859375 12.9997C0.0859375 16.3621 1.27549 19.2329 3.65459 21.612C6.03369 23.9911 8.90447 25.1807 12.2669 25.1807C15.6294 25.1807 18.5002 23.9911 20.8793 21.612C23.2584 19.2329 24.4479 16.3621 24.4479 12.9997C24.4479 9.6372 23.2584 6.76642 20.8793 4.38732ZM8.9362 19.1853H6.03369V10.7633H8.9362V19.1853ZM8.72208 8.90761C8.72208 8.90761 8.64674 8.98691 8.49606 9.14552C8.34539 9.30413 8.048 9.38343 7.6039 9.38343C7.1598 9.38343 6.78707 9.22482 6.48572 8.90761C6.18437 8.59039 6.03369 8.2256 6.03369 7.81322C6.03369 7.40084 6.18437 7.03605 6.48572 6.71883C6.78707 6.40162 7.1598 6.24302 7.6039 6.24302C8.048 6.24302 8.42072 6.40162 8.72208 6.71883C9.02343 7.03605 9.17411 7.40084 9.17411 7.81322C9.17411 8.2256 9.02343 8.59039 8.72208 8.90761ZM19.4518 19.1853H16.5017V14.6175C16.5017 14.554 16.5017 14.4906 16.5017 14.4271C16.5017 14.3637 16.47 14.2289 16.4066 14.0227C16.3431 13.8165 16.2718 13.6341 16.1925 13.4755C16.1132 13.3169 15.9704 13.1741 15.7642 13.0472C15.558 12.9204 15.328 12.8569 15.0743 12.8569C14.6302 12.8569 14.2892 13.0076 14.0513 13.3089C13.8134 13.6103 13.6785 13.9196 13.6468 14.2368L13.5992 14.665V19.1377H10.6967V10.7633H13.5517V11.9053C14.0275 10.9219 14.8046 10.462 15.8832 10.5254C16.8983 10.5254 17.7389 10.8505 18.405 11.5008C19.0712 12.1511 19.4042 13.0948 19.4042 14.332L19.4518 19.1853Z" fill="#999999"/>
</g>
<defs>
<clipPath id="clip0_1448_1214">
<rect width="24.362" height="26" fill="white" transform="matrix(1 0 0 -1 0.0859375 26)"/>
</clipPath>
</defs>
</svg>
