<svg width="20" height="20" viewBox="0 0 20 20" fill="none" xmlns="http://www.w3.org/2000/svg">
<g id="Link" clip-path="url(#clip0_956_5151)">
<path id="Vector" d="M12.6876 3.20332C13.0131 2.8127 13.2703 2.37324 13.4591 1.88496C13.6479 1.39668 13.7423 0.879103 13.7423 0.332228C13.7423 0.267124 13.7391 0.20853 13.7325 0.156446C13.726 0.104364 13.7228 0.0522823 13.7228 0.000198364C13.1238 0.0653019 12.5737 0.231318 12.0724 0.498243C11.5711 0.765171 11.1381 1.10697 10.7736 1.52363V1.54317C10.435 1.90775 10.1713 2.33093 9.98254 2.8127C9.79374 3.29447 9.69934 3.80228 9.69934 4.33613C9.69934 4.38822 9.69934 4.43705 9.69934 4.48262C9.69934 4.52819 9.69934 4.57702 9.69934 4.6291V4.60957C9.71236 4.60957 9.72538 4.60957 9.7384 4.60957C9.75142 4.60957 9.76445 4.60957 9.77747 4.60957C10.3634 4.60957 10.9103 4.48262 11.4181 4.22871C11.9259 3.97481 12.3491 3.63952 12.6876 3.22285V3.20332ZM13.7032 4.82442C12.8829 4.78535 12.1375 4.93184 11.4669 5.26387C10.7963 5.5959 10.2657 5.76192 9.87512 5.76192C9.4845 5.76192 9.00273 5.61543 8.42981 5.32246C7.85689 5.02949 7.24491 4.88952 6.59387 4.90254C5.69543 4.92858 4.88489 5.16947 4.16223 5.6252C3.43958 6.08093 2.87642 6.66686 2.47278 7.38301L2.45325 7.40254C2.01054 8.17077 1.74361 9.01061 1.65247 9.92207C1.57434 10.8335 1.6134 11.745 1.76965 12.6564C1.9259 13.5679 2.17981 14.4403 2.53137 15.2736C2.88293 16.12 3.27356 16.8492 3.70325 17.4611C4.11991 18.0731 4.58541 18.6558 5.09973 19.2092C5.61405 19.7626 6.20325 20.0262 6.86731 20.0002C7.49231 19.9742 8.00338 19.8309 8.40051 19.5705C8.79765 19.3101 9.38033 19.1799 10.1486 19.1799C10.9038 19.1799 11.4734 19.3166 11.8575 19.59C12.2417 19.8635 12.7657 19.9937 13.4298 19.9807C14.1199 19.9676 14.6993 19.7072 15.1681 19.1994C15.6368 18.6916 16.0795 18.1317 16.4962 17.5197C16.7827 17.1161 17.0398 16.6799 17.2677 16.2111C17.4956 15.7424 17.6876 15.2606 17.8439 14.7658L17.8829 14.6877C17.0887 14.3361 16.4441 13.799 15.9493 13.0764C15.4545 12.3537 15.2072 11.5367 15.2072 10.6252C15.2072 9.83093 15.4025 9.0985 15.7931 8.42793C16.1837 7.75736 16.698 7.22676 17.3361 6.83613L17.3556 6.8166C16.9389 6.24369 16.4148 5.77819 15.7833 5.42012C15.1518 5.06205 14.4585 4.86348 13.7032 4.82442Z" fill="#CCCCCC"/>
</g>
<defs>
<clipPath id="clip0_956_5151">
<rect width="19.2593" height="20" fill="white" transform="matrix(1 0 0 -1 0 20)"/>
</clipPath>
</defs>
</svg>
