<svg width="25" height="26" viewBox="0 0 25 26" fill="none" xmlns="http://www.w3.org/2000/svg">
<g opacity="0.6" clip-path="url(#clip0_1448_1216)">
<path d="M10.4405 16.093L15.7221 13.0478L10.4405 10.0025V16.093ZM21.3368 4.38785C21.3368 4.38785 20.742 3.79308 19.5524 2.60353C18.3629 1.41398 16.071 0.819202 12.6768 0.819202C9.28264 0.819202 6.396 2.00875 4.01689 4.38785C1.63779 6.76696 0.448242 9.6536 0.448242 13.0478C0.448242 16.442 1.63779 19.3286 4.01689 21.7077C6.396 24.0868 9.28264 25.2764 12.6768 25.2764C16.071 25.2764 18.9577 24.0868 21.3368 21.7077C23.7159 19.3286 24.9054 16.442 24.9054 13.0478C24.9054 9.6536 23.7159 6.76696 21.3368 4.38785ZM19.7665 14.4752C19.7665 15.0462 19.6872 15.6807 19.5286 16.3785C19.3066 17.1081 18.8466 17.5205 18.1488 17.6157C17.7047 17.7425 17.324 17.806 17.0068 17.806C16.0234 17.9329 14.5801 17.9963 12.6768 17.9963H10.3453C10.155 17.9963 9.87742 17.9805 9.51262 17.9487C9.14782 17.917 8.88612 17.9012 8.72752 17.9012C8.4103 17.9012 7.90276 17.8377 7.20489 17.7108C6.85596 17.6474 6.53081 17.4808 6.22946 17.2112C5.92811 16.9416 5.76157 16.6323 5.72985 16.2834C5.63468 15.522 5.5871 15.1255 5.5871 15.0938C5.52366 14.618 5.49194 13.9043 5.49194 12.9526C5.49194 12.7623 5.5078 12.4371 5.53952 11.9772C5.57124 11.5172 5.5871 11.1762 5.5871 10.9542C5.5871 10.8273 5.59503 10.6845 5.61089 10.5259C5.62675 10.3673 5.65054 10.1849 5.68227 9.97874C5.71399 9.77255 5.72985 9.62188 5.72985 9.52671C6.07878 8.79712 6.57046 8.38474 7.20489 8.28958C7.42694 8.22614 7.8076 8.19442 8.34686 8.19442C9.2985 8.06753 10.7735 8.00409 12.772 8.00409C13.0575 8.00409 13.5016 8.01995 14.1043 8.05167C14.707 8.08339 15.167 8.09925 15.4842 8.09925C16.1186 8.09925 16.6261 8.13097 17.0068 8.19442C17.324 8.19442 17.7047 8.25786 18.1488 8.38474C18.8466 8.51163 19.3066 8.95573 19.5286 9.71704C19.5286 9.74876 19.5524 9.92323 19.6 10.2404C19.6476 10.5577 19.6714 10.7956 19.6714 10.9542C19.7348 11.4617 19.7665 12.223 19.7665 13.2381V14.4752Z" fill="#999999"/>
</g>
<defs>
<clipPath id="clip0_1448_1216">
<rect width="24.362" height="26" fill="white" transform="matrix(1 0 0 -1 0.448242 26)"/>
</clipPath>
</defs>
</svg>
