<svg width="29" height="31" viewBox="0 0 29 31" fill="none" xmlns="http://www.w3.org/2000/svg">
<g clip-path="url(#clip0_1207_1508)">
<path d="M11.5845 19.0686L17.6787 15.5549L11.5845 12.0411V19.0686ZM24.1571 5.56267C24.1571 5.56267 23.4709 4.87639 22.0983 3.50383C20.7257 2.13127 18.0813 1.44499 14.1649 1.44499C10.2485 1.44499 6.9178 2.81755 4.17268 5.56267C1.42757 8.30778 0.0550079 11.6385 0.0550079 15.5549C0.0550079 19.4713 1.42757 22.802 4.17268 25.5471C6.9178 28.2922 10.2485 29.6648 14.1649 29.6648C18.0813 29.6648 21.412 28.2922 24.1571 25.5471C26.9023 22.802 28.2748 19.4713 28.2748 15.5549C28.2748 11.6385 26.9023 8.30778 24.1571 5.56267ZM22.3454 17.202C22.3454 17.8608 22.2539 18.5928 22.0708 19.3981C21.8146 20.2399 21.2839 20.7157 20.4787 20.8255C19.9663 20.9719 19.527 21.0451 19.161 21.0451C18.0264 21.1915 16.361 21.2647 14.1649 21.2647H11.4747C11.2551 21.2647 10.9348 21.2464 10.5139 21.2098C10.093 21.1732 9.79102 21.1549 9.60802 21.1549C9.242 21.1549 8.65637 21.0817 7.85114 20.9353C7.44852 20.8621 7.07336 20.67 6.72564 20.3588C6.37793 20.0477 6.18577 19.6909 6.14917 19.2883C6.03936 18.4098 5.98446 17.9523 5.98446 17.9157C5.91126 17.3667 5.87466 16.5431 5.87466 15.4451C5.87466 15.2255 5.89296 14.8503 5.92956 14.3196C5.96616 13.7889 5.98446 13.3954 5.98446 13.1392C5.98446 12.9928 5.99361 12.8281 6.01191 12.6451C6.03021 12.4621 6.05766 12.2516 6.09427 12.0137C6.13087 11.7758 6.14917 11.6019 6.14917 11.4921C6.55179 10.6503 7.11911 10.1745 7.85114 10.0647C8.10735 9.99146 8.54657 9.95485 9.1688 9.95485C10.2668 9.80845 11.9688 9.73524 14.2747 9.73524C14.6041 9.73524 15.1166 9.75354 15.812 9.79015C16.5074 9.82675 17.0381 9.84505 17.4041 9.84505C18.1362 9.84505 18.7218 9.88165 19.161 9.95485C19.527 9.95485 19.9663 10.0281 20.4787 10.1745C21.2839 10.3209 21.8146 10.8333 22.0708 11.7117C22.0708 11.7483 22.0983 11.9496 22.1532 12.3157C22.2081 12.6817 22.2356 12.9562 22.2356 13.1392C22.3088 13.7248 22.3454 14.6033 22.3454 15.7745V17.202Z" fill="white"/>
</g>
<defs>
<clipPath id="clip0_1207_1508">
<rect width="28.11" height="30" fill="white" transform="matrix(1 0 0 -1 0.0550079 30.5)"/>
</clipPath>
</defs>
</svg>
