<svg width="29" height="31" viewBox="0 0 29 31" fill="none" xmlns="http://www.w3.org/2000/svg">
<g clip-path="url(#clip0_1207_1502)">
<path d="M18.6781 10.1196H16.8114C16.5186 10.1196 16.2441 10.2477 15.9879 10.5039C15.7682 10.7235 15.6767 10.9981 15.7133 11.3275V13.4138H18.6781L18.2938 16.2687H15.7133V23.7903H12.6937V16.3236H10.2231V13.4138H12.6937V10.8334C12.7303 9.95492 13.0414 9.19543 13.6271 8.55491C14.2127 7.91438 14.9264 7.53921 15.7682 7.42941H18.733L18.6781 10.1196ZM14.78 1.44505C10.9002 1.44505 7.5878 2.81761 4.84268 5.56273C2.09756 8.30785 0.725006 11.6203 0.725006 15.5001C0.725006 19.3798 2.09756 22.6923 4.84268 25.4374C7.5878 28.1825 10.9002 29.5551 14.78 29.5551C18.6598 29.5551 21.9722 28.1825 24.7173 25.4374C27.4624 22.6923 28.835 19.3798 28.835 15.5001C28.835 11.6203 27.4624 8.30785 24.7173 5.56273C21.9722 2.81761 18.6598 1.44505 14.78 1.44505Z" fill="white"/>
</g>
<defs>
<clipPath id="clip0_1207_1502">
<rect width="28.11" height="30" fill="white" transform="matrix(1 0 0 -1 0.725006 30.5)"/>
</clipPath>
</defs>
</svg>
