<svg width="26" height="26" viewBox="0 0 26 26" fill="none" xmlns="http://www.w3.org/2000/svg">
<g opacity="0.6" clip-path="url(#clip0_1448_1218)">
<path d="M13.0147 0.818949C11.27 0.818949 9.62845 1.15995 8.08996 1.84196C6.55148 2.52397 5.26676 3.41217 4.23582 4.50656C3.20487 5.60094 2.38805 6.87773 1.78534 8.33691C1.18264 9.79609 0.857492 11.287 0.80991 12.8096C0.762328 14.3322 1.03989 15.8707 1.6426 17.4251C2.2453 18.9794 3.16522 20.3752 4.40235 21.6123C5.63949 22.8494 7.03523 23.7693 8.58957 24.3721C10.1439 24.9748 11.6824 25.2523 13.205 25.2047C14.7277 25.1572 16.2186 24.832 17.6777 24.2293C19.1369 23.6266 20.4137 22.8098 21.5081 21.7788C22.6025 20.7479 23.4907 19.4632 24.1727 17.9247C24.8547 16.3862 25.1957 14.7446 25.1957 12.9999C25.1957 9.63749 24.0062 6.7667 21.627 4.3876C19.2479 2.0085 16.3772 0.818949 13.0147 0.818949ZM13.5857 5.76748H15.6317C15.7586 6.6874 16.1551 7.4725 16.8213 8.12279C17.4874 8.77308 18.2804 9.12994 19.2004 9.19339V11.6201H18.8673C17.4716 11.6201 16.393 11.0332 15.6317 9.85953V15.8549C15.6317 17.0603 15.1955 18.0912 14.3232 18.9477C13.4509 19.8042 12.412 20.2324 11.2066 20.2324C10.0012 20.2324 8.97023 19.8042 8.11375 18.9477C7.25728 18.0912 6.82904 17.0603 6.82904 15.8549C6.82904 14.6495 7.25728 13.6106 8.11375 12.7382C8.97023 11.8659 10.0012 11.4297 11.2066 11.4297H11.4921V13.6185H11.2066C10.6039 13.6185 10.0884 13.8406 9.66017 14.2847C9.23193 14.7288 9.01781 15.2522 9.01781 15.8549C9.01781 16.4576 9.23193 16.973 9.66017 17.4013C10.0884 17.8295 10.6039 18.0595 11.2066 18.0912C11.841 18.1229 12.3803 17.9168 12.8244 17.4727C13.2685 17.0286 13.5064 16.4893 13.5381 15.8549L13.5857 5.76748Z" fill="#999999"/>
</g>
<defs>
<clipPath id="clip0_1448_1218">
<rect width="24.362" height="26" fill="white" transform="matrix(1 0 0 -1 0.810059 26)"/>
</clipPath>
</defs>
</svg>
