<svg width="30" height="30" viewBox="0 0 30 30" fill="none" xmlns="http://www.w3.org/2000/svg">
<path d="M3.39882 13.8869L24.4306 13.8869L16.7981 6.25442C16.3175 5.85866 16.261 5.15195 16.6568 4.67138C17.0525 4.19081 17.7592 4.13428 18.2398 4.53004C18.2963 4.58657 18.3246 4.61484 18.3811 4.67138L27.9642 14.2544C28.0207 14.311 28.049 14.3675 28.0773 14.424C28.1055 14.4523 28.1055 14.4806 28.1338 14.5088C28.1621 14.5371 28.1621 14.5654 28.1903 14.6219C28.2186 14.6502 28.2186 14.7067 28.2186 14.735C28.2186 14.7632 28.2469 14.7915 28.2469 14.8198C28.2751 14.9611 28.2751 15.1307 28.2469 15.2721C28.2469 15.3004 28.2186 15.3286 28.2186 15.3569C28.2186 15.3852 28.1903 15.4417 28.1903 15.47C28.1621 15.4982 28.1621 15.5548 28.1338 15.583C28.1055 15.6113 28.1055 15.6396 28.0773 15.6678C28.049 15.7244 27.9924 15.7809 27.9359 15.8375L18.4094 25.3922C17.9571 25.8445 17.2504 25.8445 16.7981 25.3922C16.3458 24.9399 16.3458 24.2332 16.7981 23.7809L24.4306 16.1484H3.39881C2.77691 16.1484 2.26807 15.6396 2.26807 15.0177C2.26807 14.3958 2.77691 13.8869 3.39882 13.8869Z" fill="#F70759"/>
</svg>
