<svg width="17" height="18" viewBox="0 0 17 18" fill="none" xmlns="http://www.w3.org/2000/svg">
<g id="Button" clip-path="url(#clip0_956_10576)">
<path id="Vector" d="M12.8386 5.2503H15.5662C15.8411 5.2503 16.0737 5.15515 16.264 4.96485C16.4543 4.77455 16.5494 4.54197 16.5494 4.26709C16.5494 3.99222 16.4543 3.75963 16.264 3.56933C16.0737 3.37903 15.8411 3.28388 15.5662 3.28388H1.29381C1.01893 3.28388 0.786347 3.37903 0.596048 3.56933C0.40575 3.75963 0.3106 3.99222 0.3106 4.26709C0.3106 4.54197 0.40575 4.77455 0.596048 4.96485C0.786347 5.15515 1.01893 5.2503 1.29381 5.2503H12.8386ZM12.8386 10.2932H15.5662C15.8411 10.2932 16.0737 10.1981 16.264 10.0078C16.4543 9.81746 16.5494 9.58488 16.5494 9.31C16.5494 9.03513 16.4543 8.80254 16.264 8.61224C16.0737 8.42194 15.8411 8.32679 15.5662 8.32679H1.29381C1.01893 8.32679 0.786347 8.42194 0.596048 8.61224C0.40575 8.80254 0.3106 9.03513 0.3106 9.31C0.3106 9.58488 0.40575 9.81746 0.596048 10.0078C0.786347 10.1981 1.01893 10.2932 1.29381 10.2932H12.8386ZM12.8386 15.3361H15.5662C15.8411 15.3361 16.0737 15.241 16.264 15.0507C16.4543 14.8604 16.5494 14.6278 16.5494 14.3529C16.5494 14.0569 16.4543 13.8137 16.264 13.6234C16.0314 13.4331 15.7988 13.3486 15.5662 13.3697H1.29381C1.01893 13.3697 0.786347 13.4649 0.596048 13.6552C0.40575 13.8454 0.3106 14.078 0.3106 14.3529C0.3106 14.6278 0.40575 14.8604 0.596048 15.0507C0.786347 15.241 1.01893 15.3361 1.29381 15.3361H12.8386Z" fill="#333333"/>
</g>
<defs>
<clipPath id="clip0_956_10576">
<rect width="16.86" height="17" fill="white" transform="matrix(1 0 0 -1 0 17.81)"/>
</clipPath>
</defs>
</svg>
