<svg width="26" height="26" viewBox="0 0 26 26" fill="none" xmlns="http://www.w3.org/2000/svg">
<g opacity="0.6" clip-path="url(#clip0_1448_1212)">
<path d="M18.615 10.4778V10.8109C18.615 12.3018 18.2422 13.6658 17.4968 14.9029C16.7513 16.1401 15.7442 17.1076 14.4753 17.8054C13.1748 18.5033 11.8028 18.8285 10.3595 18.7809C8.91616 18.7333 7.57593 18.313 6.3388 17.52C6.59257 17.5834 6.81462 17.5834 7.00495 17.52C8.2738 17.52 9.43163 17.1234 10.4784 16.3304C9.14614 16.267 8.2738 15.6167 7.86143 14.3795C8.30553 14.4747 8.73376 14.4588 9.14614 14.332C8.51171 14.2051 7.98038 13.8799 7.55214 13.3565C7.1239 12.8331 6.90979 12.2384 6.90979 11.5722C7.227 11.7625 7.65524 11.8894 8.1945 11.9529C7.59179 11.5405 7.20321 10.9695 7.02874 10.2399C6.85427 9.51031 6.94151 8.8283 7.29044 8.19388C8.74962 10.002 10.6846 10.9854 13.0955 11.144C12.9368 10.5095 12.9844 9.8989 13.2382 9.31206C13.492 8.72521 13.9043 8.27318 14.4753 7.95597C15.0463 7.63875 15.6411 7.53566 16.2597 7.64668C16.8782 7.75771 17.4096 8.05113 17.8537 8.52695C18.5832 8.36835 19.186 8.1463 19.6618 7.8608C19.4714 8.52695 19.0591 9.06622 18.4246 9.47859C19.0273 9.38343 19.5666 9.22482 20.0424 9.00277C19.63 9.6372 19.1542 10.1289 18.615 10.4778ZM12.9051 0.818663C9.54266 0.818663 6.67188 2.00821 4.29277 4.38732C1.91367 6.76642 0.724121 9.6372 0.724121 12.9997C0.724121 16.3621 1.91367 19.2329 4.29277 21.612C6.67188 23.9911 9.54266 25.1807 12.9051 25.1807C16.2676 25.1807 19.1384 23.9911 21.5175 21.612C23.8966 19.2329 25.0861 16.3621 25.0861 12.9997C25.0861 9.6372 23.8966 6.76642 21.5175 4.38732C19.1384 2.00821 16.2676 0.818663 12.9051 0.818663Z" fill="#999999"/>
</g>
<defs>
<clipPath id="clip0_1448_1212">
<rect width="24.362" height="26" fill="white" transform="matrix(1 0 0 -1 0.724121 26)"/>
</clipPath>
</defs>
</svg>
