<svg width="29" height="31" viewBox="0 0 29 31" fill="none" xmlns="http://www.w3.org/2000/svg">
<g clip-path="url(#clip0_1207_1504)">
<path d="M21.4783 12.5902V12.9745C21.4783 14.6948 21.0482 16.2687 20.1881 17.6961C19.3279 19.1236 18.1658 20.24 16.7018 21.0452C15.2011 21.8504 13.6181 22.2256 11.9527 22.1707C10.2873 22.1158 8.74093 21.6308 7.31347 20.7158C7.60628 20.789 7.86249 20.789 8.0821 20.7158C9.54616 20.7158 10.8821 20.2583 12.09 19.3432C10.5527 19.27 9.54616 18.5197 9.07034 17.0922C9.58276 17.202 10.0769 17.1837 10.5527 17.0373C9.82067 16.8909 9.2076 16.5157 8.71348 15.9118C8.21936 15.3079 7.9723 14.6216 7.9723 13.853C8.33831 14.0726 8.83243 14.219 9.45466 14.2922C8.75923 13.8164 8.31086 13.1576 8.10955 12.3157C7.90824 11.4739 8.0089 10.6869 8.41152 9.95492C10.0952 12.0412 12.3279 13.1759 15.1096 13.3589C14.9266 12.6268 14.9815 11.9223 15.2743 11.2451C15.5671 10.568 16.0429 10.0464 16.7018 9.6804C17.3606 9.31439 18.0469 9.19543 18.7606 9.32354C19.4743 9.45164 20.0874 9.79021 20.5998 10.3392C21.4417 10.1562 22.1371 9.90001 22.6861 9.5706C22.4665 10.3392 21.9907 10.9615 21.2587 11.4373C21.9541 11.3275 22.5763 11.1445 23.1253 10.8883C22.6495 11.6203 22.1005 12.1876 21.4783 12.5902ZM14.89 1.44505C11.0102 1.44505 7.69778 2.81761 4.95267 5.56273C2.20755 8.30785 0.834991 11.6203 0.834991 15.5001C0.834991 19.3798 2.20755 22.6923 4.95267 25.4374C7.69778 28.1825 11.0102 29.5551 14.89 29.5551C18.7698 29.5551 22.0822 28.1825 24.8273 25.4374C27.5724 22.6923 28.945 19.3798 28.945 15.5001C28.945 11.6203 27.5724 8.30785 24.8273 5.56273C22.0822 2.81761 18.7698 1.44505 14.89 1.44505Z" fill="white"/>
</g>
<defs>
<clipPath id="clip0_1207_1504">
<rect width="28.11" height="30" fill="white" transform="matrix(1 0 0 -1 0.834991 30.5)"/>
</clipPath>
</defs>
</svg>
