<svg width="25" height="26" viewBox="0 0 25 26" fill="none" xmlns="http://www.w3.org/2000/svg">
<g opacity="0.6" clip-path="url(#clip0_1448_1220)">
<path d="M12.3765 0.818949C10.6318 0.818949 8.99026 1.15995 7.45178 1.84196C5.91329 2.52397 4.62858 3.41217 3.59763 4.50656C2.56669 5.60094 1.74986 6.87773 1.14716 8.33691C0.544452 9.79609 0.219308 11.287 0.171726 12.8096C0.124144 14.3322 0.401706 15.8707 1.00441 17.4251C1.60712 18.9794 2.52704 20.3752 3.76417 21.6123C5.0013 22.8494 6.39704 23.7693 7.95139 24.3721C9.50574 24.9748 11.0442 25.2523 12.5668 25.2047C14.0895 25.1572 15.5804 24.832 17.0396 24.2293C18.4987 23.6266 19.7755 22.8098 20.8699 21.7788C21.9643 20.7479 22.8525 19.4632 23.5345 17.9247C24.2165 16.3862 24.5575 14.7446 24.5575 12.9999C24.5575 9.63749 23.368 6.7667 20.9889 4.3876C18.6098 2.0085 15.739 0.818949 12.3765 0.818949ZM9.04578 20.0421C8.91889 19.2491 8.93475 18.3609 9.09336 17.3775L10.1402 12.8572C9.94983 12.4448 9.85467 11.9849 9.85467 11.4773C9.85467 10.8746 10.0212 10.3591 10.3543 9.93091C10.6874 9.50267 11.0759 9.28855 11.52 9.28855C11.869 9.28855 12.1703 9.41544 12.4241 9.66921C12.6144 9.92298 12.7096 10.2243 12.7096 10.5733C12.7096 10.8588 12.5986 11.3822 12.3765 12.1435C12.1545 12.9048 12.0117 13.3965 11.9483 13.6185C11.7897 14.0309 11.869 14.4115 12.1862 14.7605C12.5034 15.1094 12.8682 15.268 13.2806 15.2363C14.1053 15.2363 14.7953 14.8477 15.3504 14.0705C15.9055 13.2934 16.1831 12.3021 16.1831 11.0967C16.1831 10.0181 15.8183 9.11408 15.0887 8.38449C14.2957 7.62318 13.3757 7.27424 12.3289 7.33769C11.2187 7.27424 10.2512 7.63904 9.42643 8.43207C8.60168 9.19339 8.1893 10.1609 8.1893 11.3346C8.1893 12.1276 8.42721 12.8255 8.90303 13.4282C8.96647 13.4916 8.98233 13.5709 8.95061 13.6661C8.792 14.1419 8.7127 14.4909 8.7127 14.7129C8.64926 14.8715 8.53823 14.9032 8.37963 14.8081C7.84036 14.5543 7.39627 14.0785 7.04733 13.3806C6.6984 12.6827 6.52393 11.9849 6.52393 11.287C6.52393 9.76437 7.05526 8.46379 8.11793 7.38527C9.18059 6.30674 10.6636 5.76748 12.5668 5.76748C14.1846 5.76748 15.5328 6.26709 16.6113 7.26631C17.6898 8.26554 18.2291 9.52646 18.2291 11.0491C18.2291 12.6352 17.7771 13.9754 16.873 15.0698C15.969 16.1642 14.8349 16.7113 13.4709 16.7113C12.5827 16.7748 11.8848 16.4259 11.3773 15.6645C11.0601 16.8382 10.8698 17.5678 10.8063 17.8533C10.5208 18.7415 10.1402 19.5345 9.66434 20.2324C9.6009 20.2324 9.4978 20.2007 9.35506 20.1373C9.21231 20.0738 9.10922 20.0421 9.04578 20.0421Z" fill="#999999"/>
</g>
<defs>
<clipPath id="clip0_1448_1220">
<rect width="24.362" height="26" fill="white" transform="matrix(1 0 0 -1 0.171875 26)"/>
</clipPath>
</defs>
</svg>
