<svg width="29" height="31" viewBox="0 0 29 31" fill="none" xmlns="http://www.w3.org/2000/svg">
<g clip-path="url(#clip0_1207_1510)">
<path d="M14.2475 1.44502C12.2344 1.44502 10.3402 1.83849 8.56507 2.62543C6.78989 3.41236 5.30753 4.4372 4.11798 5.69995C2.92843 6.96271 1.98593 8.43592 1.29051 10.1196C0.595076 11.8033 0.21991 13.5235 0.165007 15.2804C0.110105 17.0373 0.430369 18.8125 1.1258 20.6059C1.82123 22.3994 2.88267 24.0099 4.31013 25.4373C5.7376 26.8648 7.34806 27.9263 9.14154 28.6217C10.935 29.3171 12.7102 29.6374 14.4671 29.5825C16.2239 29.5276 17.9442 29.1524 19.6279 28.457C21.3116 27.7615 22.7848 26.8191 24.0475 25.6295C25.3103 24.44 26.3351 22.9576 27.1221 21.1824C27.909 19.4072 28.3025 17.5131 28.3025 15.5C28.3025 11.6203 26.9299 8.30782 24.1848 5.5627C21.4397 2.81758 18.1272 1.44502 14.2475 1.44502ZM14.9063 7.15487H17.2671C17.4135 8.21631 17.871 9.1222 18.6396 9.87253C19.4083 10.6229 20.3233 11.0346 21.3848 11.1078V13.9079H21.0004C19.39 13.9079 18.1455 13.2307 17.2671 11.8765V18.7942C17.2671 20.185 16.7638 21.3746 15.7573 22.3628C14.7507 23.3511 13.552 23.8452 12.1612 23.8452C10.7703 23.8452 9.58076 23.3511 8.59252 22.3628C7.60427 21.3746 7.11015 20.185 7.11015 18.7942C7.11015 17.4033 7.60427 16.2046 8.59252 15.1981C9.58076 14.1915 10.7703 13.6882 12.1612 13.6882H12.4906V16.2138H12.1612C11.4657 16.2138 10.871 16.47 10.3768 16.9824C9.88272 17.4948 9.63566 18.0987 9.63566 18.7942C9.63566 19.4896 9.88272 20.0844 10.3768 20.5785C10.871 21.0726 11.4657 21.338 12.1612 21.3746C12.8932 21.4112 13.5154 21.1733 14.0278 20.6608C14.5403 20.1484 14.8148 19.5262 14.8514 18.7942L14.9063 7.15487Z" fill="white"/>
</g>
<defs>
<clipPath id="clip0_1207_1510">
<rect width="28.11" height="30" fill="white" transform="matrix(1 0 0 -1 0.165009 30.5)"/>
</clipPath>
</defs>
</svg>
