<svg width="15" height="14" viewBox="0 0 15 14" fill="none" xmlns="http://www.w3.org/2000/svg">
<path d="M1.88614 6.48037L11.701 6.48037L8.13914 2.91853C7.91488 2.73385 7.88849 2.40405 8.07318 2.17978C8.25787 1.95552 8.58767 1.92913 8.81193 2.11382C8.83832 2.14021 8.85151 2.1534 8.87789 2.17978L13.35 6.65187C13.3764 6.67825 13.3896 6.70463 13.4027 6.73102C13.4159 6.74421 13.4159 6.7574 13.4291 6.77059C13.4423 6.78379 13.4423 6.79698 13.4555 6.82336C13.4687 6.83655 13.4687 6.86294 13.4687 6.87613C13.4687 6.88932 13.4819 6.90251 13.4819 6.91571C13.4951 6.98166 13.4951 7.06082 13.4819 7.12678C13.4819 7.13997 13.4687 7.15316 13.4687 7.16635C13.4687 7.17954 13.4555 7.20593 13.4555 7.21912C13.4423 7.23231 13.4423 7.2587 13.4291 7.27189C13.4159 7.28508 13.4159 7.29827 13.4027 7.31147C13.3896 7.33785 13.3632 7.36423 13.3368 7.39062L8.89108 11.8495C8.68001 12.0606 8.35021 12.0606 8.13914 11.8495C7.92807 11.6384 7.92807 11.3086 8.13914 11.0976L11.701 7.53573L1.88614 7.53573C1.59592 7.53573 1.35846 7.29827 1.35846 7.00805C1.35846 6.71783 1.59592 6.48037 1.88614 6.48037Z" fill="#F5F4F5"/>
</svg>
