<svg width="30" height="32" viewBox="0 0 30 32" fill="none" xmlns="http://www.w3.org/2000/svg">
<path d="M19.1912 8.66555H10.7509C9.81953 8.66555 9.02401 8.9954 8.36431 9.6551C7.7046 10.3148 7.37475 11.1297 7.37475 12.0999V19.8999C7.37475 20.87 7.7046 21.6849 8.36431 22.3447C9.02401 23.0044 9.83893 23.3342 10.8091 23.3342H19.2494C20.1807 23.3342 20.9762 22.9947 21.6359 22.3155C22.2957 21.6364 22.6255 20.8312 22.6255 19.8999V12.0999C22.6255 11.1297 22.2957 10.3148 21.6359 9.6551C20.9762 8.9954 20.1613 8.66555 19.1912 8.66555ZM17.9688 18.9685C17.9688 18.9685 17.7651 19.1723 17.3576 19.5797C16.9501 19.9872 16.1643 20.1909 15.0001 20.1909C13.8359 20.1909 12.8367 19.7835 12.0024 18.9685C11.168 18.1536 10.7509 17.1447 10.7509 15.9417C10.7509 14.7775 11.168 13.7879 12.0024 12.973C12.8367 12.1581 13.8359 11.7506 15.0001 11.7506C16.1643 11.7506 17.1539 12.1581 17.9688 12.973C18.7837 13.7879 19.1912 14.7775 19.1912 15.9417C19.1912 17.1447 18.7837 18.1536 17.9688 18.9685ZM19.1912 12.6238C18.8031 12.6238 18.5121 12.4103 18.318 11.9835C18.124 11.6342 18.2016 11.2849 18.5509 10.9357C18.8613 10.6252 19.2106 10.567 19.5986 10.7611C20.0643 10.9551 20.2583 11.2655 20.1807 11.6924C20.1807 11.9641 20.0837 12.1872 19.8897 12.3618C19.6957 12.5364 19.4628 12.6238 19.1912 12.6238ZM17.0083 13.9917C17.0083 13.9917 16.8677 13.851 16.5863 13.5697C16.305 13.2883 15.7762 13.1476 15.0001 13.1476C14.224 13.1476 13.5546 13.429 12.9919 13.9917C12.4292 14.5544 12.1479 15.2238 12.1479 15.9999C12.1479 16.776 12.4292 17.4454 12.9919 18.0081C13.5546 18.5708 14.224 18.8521 15.0001 18.8521C15.7762 18.8521 16.4457 18.5708 17.0083 18.0081C17.571 17.4454 17.8524 16.776 17.8524 15.9999C17.8524 15.2238 17.571 14.5544 17.0083 13.9917ZM25.5359 5.46405C25.5359 5.46405 24.8083 4.73644 23.3531 3.28122C21.8979 1.82599 19.1136 1.09838 15.0001 1.09838C10.8867 1.09838 7.37475 2.5536 4.4643 5.46405C1.55386 8.3745 0.0986328 11.8864 0.0986328 15.9999C0.0986328 20.1133 1.55386 23.6252 4.4643 26.5357C7.37475 29.4461 10.8867 30.9014 15.0001 30.9014C19.1136 30.9014 22.6255 29.4461 25.5359 26.5357C28.4464 23.6252 29.9016 20.1133 29.9016 15.9999C29.9016 11.8864 28.4464 8.3745 25.5359 5.46405ZM23.9643 19.8999C23.9643 21.2193 23.4986 22.3447 22.5673 23.276C21.6359 24.2073 20.5106 24.673 19.1912 24.673H10.7509C9.43147 24.673 8.3061 24.2073 7.37475 23.276C6.44341 22.3447 5.97774 21.2193 5.97774 19.8999V12.0999C5.97774 10.7805 6.44341 9.6551 7.37475 8.72375C8.3061 7.79241 9.45087 7.32674 10.8091 7.32674H19.2494C20.5688 7.32674 21.6942 7.79241 22.6255 8.72375C23.5568 9.6551 24.0225 10.7805 24.0225 12.0999L23.9643 19.8999Z" fill="#F70759"/>
</svg>
