<svg width="30" height="32" viewBox="0 0 30 32" fill="none" xmlns="http://www.w3.org/2000/svg">
<path d="M25.5359 5.46405C25.5359 5.46405 24.8083 4.73644 23.3531 3.28122C21.8979 1.82599 19.1136 1.09838 15.0001 1.09838C10.8867 1.09838 7.37475 2.5536 4.4643 5.46405C1.55386 8.3745 0.0986328 11.8864 0.0986328 15.9999C0.0986328 20.1133 1.55386 23.6252 4.4643 26.5357C7.37475 29.4461 10.8867 30.9014 15.0001 30.9014C19.1136 30.9014 22.6255 29.4461 25.5359 26.5357C28.4464 23.6252 29.9016 20.1133 29.9016 15.9999C29.9016 11.8864 28.4464 8.3745 25.5359 5.46405ZM10.9255 23.567H7.37475V13.2641H10.9255V23.567ZM10.6636 10.9939C10.6636 10.9939 10.5714 11.0909 10.3871 11.2849C10.2027 11.479 9.83893 11.576 9.29565 11.576C8.75237 11.576 8.2964 11.382 7.92774 10.9939C7.55908 10.6058 7.37475 10.1596 7.37475 9.6551C7.37475 9.15062 7.55908 8.70435 7.92774 8.31629C8.2964 7.92823 8.75237 7.7342 9.29565 7.7342C9.83893 7.7342 10.2949 7.92823 10.6636 8.31629C11.0322 8.70435 11.2165 9.15062 11.2165 9.6551C11.2165 10.1596 11.0322 10.6058 10.6636 10.9939ZM23.7897 23.567H20.1807V17.979C20.1807 17.9014 20.1807 17.8238 20.1807 17.7461C20.1807 17.6685 20.1419 17.5036 20.0643 17.2514C19.9867 16.9991 19.8994 16.776 19.8024 16.582C19.7054 16.3879 19.5307 16.2133 19.2785 16.0581C19.0262 15.9029 18.7449 15.8252 18.4345 15.8252C17.8912 15.8252 17.474 16.0096 17.183 16.3782C16.8919 16.7469 16.727 17.1252 16.6882 17.5133L16.63 18.0372V23.5088H13.0792V13.2641H16.5718V14.6611C17.1539 13.4581 18.1046 12.8954 19.424 12.973C20.6658 12.973 21.6942 13.3708 22.5091 14.1663C23.324 14.9618 23.7315 16.1163 23.7315 17.6297L23.7897 23.567Z" fill="#F70759"/>
</svg>
