<svg width="50" height="50" viewBox="0 0 50 50" fill="none" xmlns="http://www.w3.org/2000/svg">
<g clip-path="url(#clip0_849_922)">
<path d="M35.2539 32.9238C35.2539 32.7285 35.1725 32.5495 35.0098 32.3867L31.25 28.627C31.0547 28.9199 30.6966 29.2943 30.1758 29.75L33.8867 33.5098C34.0169 33.64 34.196 33.7051 34.4238 33.7051C34.6517 33.7376 34.847 33.6725 35.0098 33.5098C35.1725 33.347 35.2539 33.1517 35.2539 32.9238ZM17.2363 27.6504C18.8639 29.278 20.8496 30.0918 23.1934 30.0918C24.821 30.0918 26.3509 29.6361 27.7832 28.7246L27.8809 28.6758C28.3691 28.3503 28.7923 28.0085 29.1504 27.6504C29.5736 27.1947 29.9154 26.7715 30.1758 26.3809V26.332C31.3802 24.4766 31.8034 22.4583 31.4453 20.2773C31.0872 18.0964 30.0293 16.3385 28.2715 15.0039C26.5137 13.6693 24.5361 13.1159 22.3389 13.3438C20.1416 13.5716 18.3105 14.5156 16.8457 16.1758C15.3809 17.8359 14.6891 19.7728 14.7705 21.9863C14.8519 24.1999 15.6738 26.0879 17.2363 27.6504ZM12.5 21.6934C12.5 19.4473 13.1348 17.4128 14.4043 15.5898C15.6738 13.7669 17.3503 12.4648 19.4336 11.6836C21.5169 10.8698 23.641 10.7396 25.8057 11.293C27.9704 11.8464 29.7852 12.9694 31.25 14.6621C32.7148 16.3548 33.5693 18.2998 33.8135 20.4971C34.0576 22.6943 33.6426 24.7858 32.5684 26.7715L36.6211 30.7754C37.207 31.3613 37.5 32.0775 37.5 32.9238C37.5 33.8027 37.207 34.5352 36.6211 35.1211C36.0026 35.707 35.2783 36 34.4482 36C33.6182 36 32.8939 35.707 32.2754 35.1211L28.2715 31.0684C26.8066 31.8822 25.1139 32.3216 23.1934 32.3867C20.2311 32.3867 17.7083 31.3451 15.625 29.2617C13.5417 27.1784 12.5 24.6556 12.5 21.6934Z" fill="#333333"/>
</g>
<defs>
<clipPath id="clip0_849_922">
<rect width="25" height="27" fill="white" transform="matrix(1 0 0 -1 12.5 37)"/>
</clipPath>
</defs>
</svg>
