<svg width="50" height="50" viewBox="0 0 50 50" fill="none" xmlns="http://www.w3.org/2000/svg">
<g clip-path="url(#clip0_849_887)">
<path d="M35.8398 20.1309L27.9297 12.2207C27.1159 11.4069 26.1393 11 25 11C23.8281 11 22.8353 11.4069 22.0215 12.2207L14.1602 20.1309C13.0534 21.2376 12.5 22.5723 12.5 24.1348V31.8496C12.5 32.9889 12.9069 33.9655 13.7207 34.7793C14.5345 35.5931 15.5111 36 16.6504 36H33.3496C34.4889 36 35.4655 35.5931 36.2793 34.7793C37.0931 33.9655 37.5 32.9889 37.5 31.8496V24.1348C37.5 22.5723 36.9466 21.2376 35.8398 20.1309ZM22.3145 33.5098V24.8184H27.2949V33.5098H22.3145ZM35.2051 31.8496C35.2051 32.3704 35.026 32.8099 34.668 33.168C34.3099 33.526 33.8704 33.7051 33.3496 33.7051H29.541V23.6953C29.541 23.4023 29.4352 23.1419 29.2236 22.9141C29.012 22.6862 28.7435 22.5723 28.418 22.5723H21.1914C20.8984 22.5723 20.638 22.6862 20.4102 22.9141C20.1823 23.1419 20.0684 23.4023 20.0684 23.6953V33.7051H16.6504C16.1296 33.7051 15.6901 33.526 15.332 33.168C14.974 32.8099 14.7949 32.3704 14.7949 31.8496V24.1348C14.7949 23.1908 15.1204 22.3932 15.7715 21.7422L23.6328 13.832C24.056 13.474 24.5117 13.2949 25 13.2949C25.5208 13.2949 25.9603 13.474 26.3184 13.832L34.2285 21.7422C34.8796 22.3932 35.2051 23.1908 35.2051 24.1348V31.8496Z" fill="#333333"/>
</g>
<defs>
<clipPath id="clip0_849_887">
<rect width="25" height="27" fill="white" transform="matrix(1 0 0 -1 12.5 37)"/>
</clipPath>
</defs>
</svg>
