<svg width="146" height="44" viewBox="0 0 146 44" fill="none" xmlns="http://www.w3.org/2000/svg">
<g clip-path="url(#clip0_1197_6670)">
<g clip-path="url(#clip1_1197_6670)">
<g clip-path="url(#clip2_1197_6670)">
<path d="M24.2746 12.3332V22.857H22.5761V12.6655C22.5761 9.24988 20.859 7.10819 18.1081 7.10819C15.0986 7.10819 13.1415 9.67452 13.1415 13.4963V22.857H11.443V12.6655C11.443 9.2868 9.65207 7.10819 6.93803 7.10819C3.96552 7.10819 2.02692 9.71145 2.02692 13.681V22.857H0.328339V5.79733H2.02692V9.08371C2.91314 6.72047 4.70403 5.53885 7.38114 5.53885C9.9844 5.53885 11.8491 6.99741 12.6246 9.47143C13.437 6.86817 15.394 5.53885 18.5512 5.53885C22.0406 5.53885 24.2746 8.17904 24.2746 12.3332Z" fill="white"/>
<path d="M42.9775 5.79733H44.6761V22.857H42.9775V19.3121C42.6082 20.4199 41.7959 21.38 40.5404 22.1554C39.3218 22.9308 37.8633 23.3001 36.2016 23.3001C33.8015 23.3001 31.7336 22.4508 30.072 20.7338C28.4103 19.0167 27.5979 16.875 27.5979 14.3456C27.5979 11.8162 28.4103 9.67452 30.072 7.95748C31.7336 6.24043 33.8015 5.39114 36.2016 5.39114C37.8633 5.39114 39.3218 5.79733 40.5404 6.57276C41.7959 7.3482 42.6082 8.27135 42.9775 9.37912V5.79733ZM41.1866 19.6445C42.4975 18.2597 43.1806 16.4688 43.1806 14.3272C43.1806 12.2039 42.4975 10.4315 41.1866 9.04679C39.8757 7.66207 38.2141 6.94202 36.2201 6.94202C34.263 6.94202 32.6014 7.64361 31.2721 9.06525C29.9612 10.4869 29.315 12.2409 29.315 14.3087C29.315 16.4135 29.9612 18.1674 31.2721 19.5891C32.5829 20.9738 34.2446 21.6938 36.2201 21.6938C38.2141 21.6938 39.8757 21.0292 41.1866 19.6445Z" fill="white"/>
<path d="M63.3789 5.79733H65.0775V20.3091C65.0775 24.2417 64.6344 26.5311 62.4743 28.2666C61.0157 29.4482 59.0956 30.0575 56.6954 30.0575C53.5198 30.0575 50.8427 29.1713 48.7194 27.4173L49.6241 26.1064C51.4889 27.6943 53.8521 28.4697 56.6585 28.4697C58.6894 28.4697 60.2772 27.9897 61.4219 27.0481C62.7327 25.9587 63.3789 24.0386 63.3789 21.2323V19.1275C62.3266 21.5646 59.8895 23.2632 56.6215 23.2632C54.2214 23.2632 52.1535 22.4139 50.4919 20.6968C48.8302 18.9798 48.0179 16.8381 48.0179 14.2718C48.0179 11.7424 48.8302 9.6376 50.4919 7.93901C52.1535 6.22197 54.2214 5.37268 56.6215 5.37268C59.9079 5.37268 62.345 6.99741 63.3789 9.39758V5.79733ZM61.588 19.6075C62.8989 18.2228 63.582 16.4688 63.582 14.3272C63.582 12.2039 62.8989 10.4315 61.588 9.04679C60.2772 7.66207 58.6155 6.94202 56.6215 6.94202C54.6645 6.94202 53.0028 7.64361 51.6735 9.04679C50.3626 10.4315 49.7164 12.1855 49.7164 14.2533C49.7164 16.3765 50.3626 18.149 51.6735 19.5706C52.9844 20.9553 54.646 21.6754 56.6215 21.6754C58.6155 21.6754 60.2772 20.9922 61.588 19.6075Z" fill="white"/>
<path d="M83.8173 5.79733H85.5159V22.857H83.8173V19.3121C83.448 20.4199 82.6357 21.38 81.3802 22.1554C80.1616 22.9308 78.7031 23.3001 77.0414 23.3001C74.6413 23.3001 72.5734 22.4508 70.9118 20.7338C69.2501 19.0167 68.4377 16.875 68.4377 14.3456C68.4377 11.8162 69.2501 9.67452 70.9118 7.95748C72.5734 6.24043 74.6413 5.39114 77.0414 5.39114C78.7031 5.39114 80.1616 5.79733 81.3802 6.57276C82.6357 7.3482 83.448 8.27135 83.8173 9.37912V5.79733ZM82.0264 19.6445C83.3373 18.2597 84.0204 16.4688 84.0204 14.3272C84.0204 12.2039 83.3373 10.4315 82.0264 9.04679C80.7155 7.66207 79.0539 6.94202 77.0599 6.94202C75.1028 6.94202 73.4412 7.64361 72.1118 9.06525C70.801 10.4869 70.1548 12.2409 70.1548 14.3087C70.1548 16.4135 70.801 18.1674 72.1118 19.5891C73.4227 20.9738 75.0844 21.6938 77.0599 21.6938C79.0539 21.6938 80.7155 21.0292 82.0264 19.6445Z" fill="white"/>
<path d="M88.2853 22.857V21.8415L99.9169 7.4036H89.6146V5.8158H102.336V6.96049L90.7593 21.2692H102.668V22.857H88.2853Z" fill="white"/>
<path d="M106.287 2.0863C105.843 1.64319 105.843 0.830828 106.287 0.38772C107.376 -0.830827 109.204 1.07085 108.004 2.0863C107.579 2.51095 106.785 2.51095 106.287 2.0863ZM106.323 22.857V5.79733H108.022V22.857H106.323Z" fill="white"/>
<path d="M112.176 22.857V5.79733H113.875V9.08371C114.853 6.72047 116.81 5.53885 119.838 5.53885C121.795 5.53885 123.383 6.14812 124.583 7.4036C125.802 8.62214 126.411 10.2838 126.411 12.3516V22.8755H124.694V12.684C124.694 9.30527 122.589 7.12665 119.451 7.12665C116.072 7.12665 113.875 9.76684 113.875 13.6994V22.857H112.176Z" fill="white"/>
<path d="M129.734 14.3641C129.734 11.7239 130.51 9.56374 132.098 7.90209C133.685 6.20351 135.679 5.37268 138.061 5.37268C140.332 5.37268 142.215 6.18505 143.711 7.8467C145.225 9.50836 145.982 11.5023 145.982 13.9025C145.982 14.2348 145.982 14.5118 145.945 14.7518H131.396C131.433 16.8196 132.079 18.4813 133.316 19.7552C134.572 21.0476 136.196 21.6754 138.116 21.6754C140.24 21.6754 142.104 20.863 143.692 19.2013L144.8 20.2907C143.083 22.2846 140.849 23.2632 138.098 23.2632C135.624 23.2632 133.63 22.4508 132.042 20.8261C130.491 19.1644 129.716 17.0781 129.716 14.4564L129.734 14.3641ZM144.209 13.2194C144.172 11.5023 143.563 10.0069 142.381 8.78831C141.2 7.56976 139.778 6.96048 138.043 6.96048C136.252 6.96048 134.719 7.56976 133.445 8.78831C132.19 9.96993 131.525 11.4654 131.451 13.2194H144.209Z" fill="white"/>
<path d="M128.904 33.8793V30.2237H131.654V33.8793H133.778V36.4456H131.654V39.7505C131.654 40.6552 132.024 41.0244 132.873 41.0244C133.021 41.0244 133.279 41.006 133.593 40.9506V43.4615C133.205 43.5538 132.762 43.6277 132.208 43.6277C130.011 43.6277 128.922 42.5384 128.922 40.2674V36.4456V33.8793H128.904Z" fill="white"/>
<path d="M94.378 29.8544C95.2642 29.8544 95.9843 30.556 95.9843 31.4607C95.9843 32.3469 95.2642 33.0485 94.378 33.0485C93.4918 33.0485 92.7718 32.3469 92.7718 31.4607C92.7533 30.556 93.4733 29.8544 94.378 29.8544Z" fill="white"/>
<path d="M92.9749 33.8793H95.7997V39.972C95.7997 40.6736 95.9658 40.969 96.4459 40.969C96.612 40.969 96.7228 40.9506 96.7782 40.9321V43.4431C96.5382 43.5354 96.0951 43.5908 95.4673 43.5908C93.8057 43.5908 92.9749 42.7045 92.9749 40.8952V33.8793Z" fill="white"/>
<path d="M100.323 43.4246L96.2243 33.8793H99.086L101.579 39.9351L104.053 33.8793H106.914L102.816 43.4246H100.323Z" fill="white"/>
<path d="M107.191 33.8793H110.016V39.972C110.016 40.6736 110.182 40.969 110.662 40.969C110.828 40.969 110.939 40.9506 110.995 40.9321V43.4431C110.755 43.5354 110.311 43.5908 109.684 43.5908C108.022 43.5908 107.191 42.7045 107.191 40.8952V33.8793Z" fill="white"/>
<path d="M135.827 29.8544C136.713 29.8544 137.433 30.556 137.433 31.4607C137.433 32.3469 136.713 33.0485 135.827 33.0485C134.941 33.0485 134.221 32.3469 134.221 31.4607C134.221 30.556 134.941 29.8544 135.827 29.8544Z" fill="white"/>
<path d="M108.594 29.8544C109.481 29.8544 110.201 30.556 110.201 31.4607C110.201 32.3469 109.481 33.0485 108.594 33.0485C107.708 33.0485 106.988 32.3469 106.988 31.4607C106.988 30.556 107.708 29.8544 108.594 29.8544Z" fill="white"/>
<path d="M134.424 33.8793H137.249V39.972C137.249 40.6736 137.415 40.969 137.895 40.969C138.061 40.969 138.172 40.9506 138.227 40.9321V43.4431C137.987 43.5354 137.544 43.5908 136.916 43.5908C135.255 43.5908 134.424 42.7045 134.424 40.8952V33.8793Z" fill="white"/>
<path d="M111.77 33.8793V30.2237H114.521V33.8793H116.644V36.4456H114.521V39.7505C114.521 40.6552 114.89 41.0244 115.74 41.0244C115.887 41.0244 116.146 41.006 116.46 40.9506V43.4615C116.072 43.5538 115.629 43.6277 115.075 43.6277C112.878 43.6277 111.788 42.5384 111.788 40.2674V36.4456V33.8793H111.77Z" fill="white"/>
<path d="M127.962 40.9875C127.445 40.9875 127.26 40.6921 127.26 39.9351V33.8424H124.436V35.0978C124.159 34.267 123.032 33.6762 121.592 33.6762C120.244 33.6762 119.118 34.1562 118.195 35.1163C117.309 36.0579 116.847 37.2395 116.847 38.6242C116.847 40.0274 117.309 41.209 118.195 42.1691C119.1 43.1107 120.244 43.5908 121.592 43.5908C123.088 43.5908 124.14 43.1292 124.749 42.206C124.879 42.6122 125.174 42.963 125.599 43.24C126.005 43.4615 126.522 43.5723 127.15 43.5723C127.703 43.5723 128.11 43.5169 128.423 43.4246V40.9506C128.276 40.969 128.11 40.9875 127.962 40.9875ZM122.109 41.006C121.426 41.006 120.854 40.7844 120.392 40.3228C119.912 39.8428 119.691 39.2889 119.691 38.6242C119.691 37.9596 119.912 37.3872 120.392 36.9441C120.872 36.4641 121.426 36.2425 122.109 36.2425C122.811 36.2425 123.402 36.4641 123.863 36.9441C124.122 37.1841 124.306 37.4611 124.436 37.7565V39.5105C124.306 39.8059 124.122 40.0828 123.863 40.3413C123.402 40.7659 122.811 41.006 122.109 41.006Z" fill="white"/>
<path d="M92.3656 35.3932L90.5931 37.1472C89.9654 36.4826 89.2638 36.1687 88.4145 36.1687C87.0298 36.1687 85.9774 37.2211 85.9774 38.6612C85.9774 40.1013 87.0483 41.1352 88.4145 41.1352C89.2638 41.1352 89.9839 40.8213 90.5931 40.1567L92.3656 41.9106C91.2947 43.0923 89.9654 43.6831 88.4145 43.6831C86.9375 43.6831 85.7005 43.203 84.685 42.243C83.688 41.2829 83.1711 40.1013 83.1711 38.6612C83.1711 37.2211 83.688 36.0394 84.685 35.0794C85.7005 34.1193 86.956 33.6208 88.4145 33.6208C89.9654 33.6208 91.2947 34.2116 92.3656 35.3932Z" fill="white"/>
<path d="M143.618 37.7934C142.566 37.4057 141.772 37.258 141.403 37.1103C141.107 36.9811 141.015 36.8334 141.015 36.5933C141.015 36.2425 141.366 35.9841 141.975 36.0025C142.788 36.0025 143.397 36.1133 144.098 36.4826L145.059 34.4886C144.135 33.8978 143.083 33.6208 142.068 33.6208C141.034 33.6024 140.147 33.8608 139.427 34.4147C138.707 34.9317 138.338 35.6887 138.32 36.6672C138.301 37.9411 139.04 38.8089 140.498 39.3443C140.775 39.4366 141.274 39.5843 141.791 39.7136C142.308 39.8428 143.138 40.0459 143.138 40.5444C143.138 41.0613 142.658 41.3198 141.698 41.3014C140.627 41.2829 139.113 40.969 138.892 40.9321C138.892 41.0429 138.892 43.4615 138.892 43.4615C139.815 43.6277 140.591 43.7015 141.606 43.72C144.412 43.7385 145.815 42.483 145.834 40.5444C145.834 39.2335 145.188 38.3288 143.618 37.7934Z" fill="white"/>
</g>
</g>
</g>
<defs>
<clipPath id="clip0_1197_6670">
<rect width="145.69" height="43.72" fill="white" transform="translate(0.309998)"/>
</clipPath>
<clipPath id="clip1_1197_6670">
<rect width="145.69" height="43.72" fill="white" transform="translate(0.309998)"/>
</clipPath>
<clipPath id="clip2_1197_6670">
<rect width="145.653" height="43.72" fill="white" transform="translate(0.328339)"/>
</clipPath>
</defs>
</svg>
