<svg width="260" height="78" viewBox="0 0 260 78" fill="none" xmlns="http://www.w3.org/2000/svg">
<g clip-path="url(#clip0_849_890)">
<g clip-path="url(#clip1_849_890)">
<g clip-path="url(#clip2_849_890)">
<path d="M43.0803 22.0621V40.7724H40.0604V22.6529C40.0604 16.5803 37.0077 12.7726 32.1167 12.7726C26.7662 12.7726 23.2868 17.3353 23.2868 24.1301V40.7724H20.2669V22.6529C20.2669 16.6459 17.0828 12.7726 12.2575 12.7726C6.97266 12.7726 3.52602 17.4009 3.52602 24.4583V40.7724H0.506104V10.442H3.52602V16.2849C5.10163 12.0832 8.28567 9.98242 13.0453 9.98242C17.6737 9.98242 20.989 12.5756 22.3677 16.9742C23.812 12.3458 27.2914 9.98242 32.9045 9.98242C39.1085 9.98242 43.0803 14.6764 43.0803 22.0621Z" fill="#333333"/>
<path d="M76.3323 10.4419H79.3522V40.7723H76.3323V34.4699C75.6758 36.4394 74.2314 38.1463 71.9993 39.525C69.8329 40.9036 67.2397 41.5601 64.2854 41.5601C60.0182 41.5601 56.3417 40.0502 53.3875 36.9974C50.4332 33.9447 48.9889 30.137 48.9889 25.6399C48.9889 21.1429 50.4332 17.3352 53.3875 14.2824C56.3417 11.2297 60.0182 9.71973 64.2854 9.71973C67.2397 9.71973 69.8329 10.4419 71.9993 11.8205C74.2314 13.1992 75.6758 14.8405 76.3323 16.81V10.4419ZM73.1482 35.0608C75.4788 32.5989 76.6933 29.4148 76.6933 25.6071C76.6933 21.8322 75.4788 18.681 73.1482 16.2191C70.8176 13.7572 67.8634 12.477 64.3182 12.477C60.8388 12.477 57.8845 13.7244 55.5211 16.2519C53.1905 18.7795 52.0416 21.8979 52.0416 25.5743C52.0416 29.3164 53.1905 32.4347 55.5211 34.9623C57.8517 37.4242 60.806 38.7043 64.3182 38.7043C67.8634 38.7043 70.8176 37.5226 73.1482 35.0608Z" fill="#333333"/>
<path d="M112.604 10.442H115.624V36.2426C115.624 43.2343 114.836 47.3047 110.996 50.3902C108.402 52.491 104.989 53.5743 100.721 53.5743C95.0754 53.5743 90.3158 51.9987 86.5409 48.8803L88.1493 46.5497C91.4647 49.3726 95.6663 50.7513 100.656 50.7513C104.266 50.7513 107.089 49.8978 109.125 48.2238C111.455 46.2871 112.604 42.8733 112.604 37.8838V34.1418C110.733 38.4747 106.4 41.4946 100.59 41.4946C96.3228 41.4946 92.6464 39.9846 89.6921 36.9319C86.7378 33.8792 85.2935 30.0714 85.2935 25.5087C85.2935 21.0117 86.7378 17.2696 89.6921 14.2497C92.6464 11.197 96.3228 9.68701 100.59 9.68701C106.433 9.68701 110.766 12.5756 112.604 16.8429V10.442ZM109.42 34.9952C111.751 32.5333 112.965 29.4149 112.965 25.6072C112.965 21.8323 111.751 18.6811 109.42 16.2192C107.089 13.7573 104.135 12.4772 100.59 12.4772C97.1106 12.4772 94.1563 13.7245 91.7929 16.2192C89.4623 18.6811 88.3134 21.7995 88.3134 25.4759C88.3134 29.2508 89.4623 32.402 91.7929 34.9296C94.1235 37.3915 97.0778 38.6716 100.59 38.6716C104.135 38.6716 107.089 37.4571 109.42 34.9952Z" fill="#333333"/>
<path d="M148.942 10.4419H151.961V40.7723H148.942V34.4699C148.285 36.4394 146.841 38.1463 144.609 39.525C142.442 40.9036 139.849 41.5601 136.895 41.5601C132.627 41.5601 128.951 40.0502 125.997 36.9974C123.042 33.9447 121.598 30.137 121.598 25.6399C121.598 21.1429 123.042 17.3352 125.997 14.2824C128.951 11.2297 132.627 9.71973 136.895 9.71973C139.849 9.71973 142.442 10.4419 144.609 11.8205C146.841 13.1992 148.285 14.8405 148.942 16.81V10.4419ZM145.757 35.0608C148.088 32.5989 149.303 29.4148 149.303 25.6071C149.303 21.8322 148.088 18.681 145.757 16.2191C143.427 13.7572 140.473 12.477 136.928 12.477C133.448 12.477 130.494 13.7244 128.13 16.2519C125.8 18.7795 124.651 21.8979 124.651 25.5743C124.651 29.3164 125.8 32.4347 128.13 34.9623C130.461 37.4242 133.415 38.7043 136.928 38.7043C140.473 38.7043 143.427 37.5226 145.757 35.0608Z" fill="#333333"/>
<path d="M156.885 40.7722V38.9669L177.565 13.2976H159.249V10.4746H181.865V12.5098L161.284 37.9493H182.456V40.7722H156.885Z" fill="#333333"/>
<path d="M188.89 3.84412C188.102 3.05632 188.102 1.61201 188.89 0.824205C190.826 -1.34226 194.076 2.03874 191.942 3.84412C191.187 4.5991 189.776 4.5991 188.89 3.84412ZM188.955 40.7724V10.442H191.975V40.7724H188.955Z" fill="#333333"/>
<path d="M199.361 40.7724V10.442H202.381V16.2849C204.121 12.0832 207.6 9.98242 212.983 9.98242C216.463 9.98242 219.286 11.0657 221.419 13.2978C223.586 15.4642 224.669 18.4185 224.669 22.0949V40.8053H221.616V22.6858C221.616 16.6788 217.874 12.8054 212.294 12.8054C206.287 12.8054 202.381 17.4994 202.381 24.4911V40.7724H199.361Z" fill="#333333"/>
<path d="M230.578 25.6729C230.578 20.9789 231.956 17.1383 234.779 14.1841C237.602 11.1641 241.147 9.68701 245.382 9.68701C249.419 9.68701 252.767 11.1313 255.426 14.0856C258.118 17.0398 259.464 20.585 259.464 24.8522C259.464 25.4431 259.464 25.9355 259.398 26.3622H233.532C233.598 30.0386 234.746 32.9929 236.946 35.2578C239.178 37.5556 242.066 38.6716 245.48 38.6716C249.255 38.6716 252.571 37.2273 255.394 34.2731L257.363 36.2097C254.31 39.7549 250.338 41.4946 245.447 41.4946C241.049 41.4946 237.504 40.0503 234.681 37.1617C231.924 34.2074 230.545 30.4982 230.545 25.837L230.578 25.6729ZM256.313 23.6377C256.247 20.585 255.164 17.9261 253.063 15.7597C250.962 13.5932 248.435 12.51 245.349 12.51C242.165 12.51 239.44 13.5932 237.176 15.7597C234.943 17.8605 233.762 20.5193 233.63 23.6377H256.313Z" fill="#333333"/>
<path d="M229.101 60.3695V53.8701H233.992V60.3695H237.766V64.9322H233.992V70.8079C233.992 72.4163 234.648 73.0728 236.158 73.0728C236.421 73.0728 236.88 73.04 237.438 72.9415V77.4058C236.749 77.5699 235.961 77.7012 234.976 77.7012C231.07 77.7012 229.133 75.7645 229.133 71.727V64.9322V60.3695H229.101Z" fill="#F70759"/>
<path d="M167.717 53.2134C169.293 53.2134 170.573 54.4607 170.573 56.0692C170.573 57.6448 169.293 58.8921 167.717 58.8921C166.142 58.8921 164.862 57.6448 164.862 56.0692C164.829 54.4607 166.109 53.2134 167.717 53.2134Z" fill="#F70759"/>
<path d="M165.223 60.3691H170.245V71.2014C170.245 72.4488 170.54 72.974 171.394 72.974C171.689 72.974 171.886 72.9412 171.985 72.9084V77.3726C171.558 77.5367 170.77 77.6352 169.654 77.6352C166.7 77.6352 165.223 76.0596 165.223 72.8427V60.3691Z" fill="#F70759"/>
<path d="M178.287 77.3398L171 60.3691H176.088L180.519 71.1358L184.918 60.3691H190.006L182.719 77.3398H178.287Z" fill="#F70759"/>
<path d="M190.498 60.3691H195.52V71.2014C195.52 72.4488 195.816 72.974 196.669 72.974C196.965 72.974 197.162 72.9412 197.26 72.9084V77.3726C196.833 77.5367 196.046 77.6352 194.93 77.6352C191.975 77.6352 190.498 76.0596 190.498 72.8427V60.3691Z" fill="#F70759"/>
<path d="M241.41 53.2134C242.986 53.2134 244.266 54.4607 244.266 56.0692C244.266 57.6448 242.986 58.8921 241.41 58.8921C239.834 58.8921 238.554 57.6448 238.554 56.0692C238.554 54.4607 239.834 53.2134 241.41 53.2134Z" fill="#F70759"/>
<path d="M192.993 53.2134C194.568 53.2134 195.849 54.4607 195.849 56.0692C195.849 57.6448 194.568 58.8921 192.993 58.8921C191.417 58.8921 190.137 57.6448 190.137 56.0692C190.137 54.4607 191.417 53.2134 192.993 53.2134Z" fill="#F70759"/>
<path d="M238.915 60.3691H243.938V71.2014C243.938 72.4488 244.233 72.974 245.086 72.974C245.382 72.974 245.579 72.9412 245.677 72.9084V77.3726C245.251 77.5367 244.463 77.6352 243.347 77.6352C240.392 77.6352 238.915 76.0596 238.915 72.8427V60.3691Z" fill="#F70759"/>
<path d="M198.639 60.3695V53.8701H203.53V60.3695H207.305V64.9322H203.53V70.8079C203.53 72.4163 204.186 73.0728 205.696 73.0728C205.959 73.0728 206.418 73.04 206.976 72.9415V77.4058C206.287 77.5699 205.499 77.7012 204.515 77.7012C200.608 77.7012 198.672 75.7645 198.672 71.727V64.9322V60.3695H198.639Z" fill="#F70759"/>
<path d="M227.426 73.0071C226.507 73.0071 226.179 72.4819 226.179 71.136V60.3037H221.157V62.5358C220.664 61.0587 218.662 60.0083 216.102 60.0083C213.706 60.0083 211.703 60.8618 210.062 62.5687C208.486 64.2427 207.666 66.3436 207.666 68.8054C207.666 71.3002 208.486 73.401 210.062 75.1079C211.67 76.782 213.706 77.6354 216.102 77.6354C218.761 77.6354 220.632 76.8148 221.715 75.1735C221.945 75.8957 222.47 76.5194 223.225 77.0117C223.947 77.4056 224.866 77.6026 225.982 77.6026C226.967 77.6026 227.689 77.5041 228.247 77.34V72.9414C227.984 72.9742 227.689 73.0071 227.426 73.0071ZM217.021 73.0399C215.806 73.0399 214.789 72.646 213.968 71.8254C213.115 70.9719 212.721 69.9872 212.721 68.8054C212.721 67.6237 213.115 66.6062 213.968 65.8184C214.822 64.9649 215.806 64.571 217.021 64.571C218.268 64.571 219.319 64.9649 220.139 65.8184C220.599 66.2451 220.927 66.7375 221.157 67.2627V70.3811C220.927 70.9063 220.599 71.3986 220.139 71.8582C219.319 72.6132 218.268 73.0399 217.021 73.0399Z" fill="#F70759"/>
<path d="M164.14 63.0609L160.988 66.1793C159.872 64.9976 158.625 64.4395 157.115 64.4395C154.653 64.4395 152.782 66.3106 152.782 68.8709C152.782 71.4313 154.686 73.2695 157.115 73.2695C158.625 73.2695 159.905 72.7115 160.988 71.5298L164.14 74.6482C162.236 76.749 159.872 77.7994 157.115 77.7994C154.489 77.7994 152.29 76.9459 150.484 75.239C148.712 73.5321 147.793 71.4313 147.793 68.8709C147.793 66.3106 148.712 64.2098 150.484 62.5029C152.29 60.7959 154.522 59.9097 157.115 59.9097C159.872 59.9097 162.236 60.9601 164.14 63.0609Z" fill="#F70759"/>
<path d="M255.262 67.3283C253.391 66.639 251.98 66.3764 251.323 66.1138C250.798 65.884 250.634 65.6214 250.634 65.1947C250.634 64.571 251.258 64.1115 252.341 64.1443C253.785 64.1443 254.868 64.3412 256.116 64.9977L257.823 61.4526C256.181 60.4022 254.31 59.9098 252.505 59.9098C250.667 59.877 249.091 60.3366 247.811 61.3213C246.531 62.2404 245.874 63.5863 245.841 65.326C245.809 67.5909 247.122 69.1337 249.715 70.0856C250.207 70.2498 251.093 70.5124 252.013 70.7421C252.932 70.9719 254.409 71.333 254.409 72.2193C254.409 73.1384 253.555 73.5979 251.848 73.5651C249.945 73.5323 247.253 72.9743 246.859 72.9086C246.859 73.1056 246.859 77.4057 246.859 77.4057C248.5 77.7011 249.879 77.8324 251.684 77.8652C256.674 77.898 259.168 75.6659 259.201 72.2193C259.201 69.8887 258.052 68.2803 255.262 67.3283Z" fill="#F70759"/>
</g>
</g>
</g>
<defs>
<clipPath id="clip0_849_890">
<rect width="259" height="77.73" fill="white" transform="translate(0.484985 0.134766)"/>
</clipPath>
<clipPath id="clip1_849_890">
<rect width="259" height="77.73" fill="white" transform="translate(0.484985 0.134766)"/>
</clipPath>
<clipPath id="clip2_849_890">
<rect width="258.958" height="77.73" fill="white" transform="translate(0.506104 0.134766)"/>
</clipPath>
</defs>
</svg>
