<svg width="101" height="24" viewBox="0 0 101 24" fill="none" xmlns="http://www.w3.org/2000/svg">
<g id="civitatis.svg" clip-path="url(#clip0_956_5161)">
<g id="Logo Civitatis">
<path id="Trazado 198" d="M73.6998 7.33229V1.44336H78.1265V7.33504H81.5462V11.4568H78.1265V16.7962C78.1265 18.2617 78.7068 18.842 80.0801 18.842C80.4695 18.8332 80.8575 18.7923 81.2401 18.7197L81.233 22.7751C80.5041 22.9542 79.7558 23.0424 79.0051 23.0378C75.4631 23.0378 73.7003 21.2865 73.7003 17.6233L73.6998 7.33229Z" fill="white"/>
<path id="Trazado 199" d="M18.076 0.860446C18.5844 0.86381 19.0804 1.01744 19.5017 1.30198C19.923 1.58652 20.2508 1.98928 20.4438 2.45961C20.6368 2.92995 20.6864 3.44684 20.5864 3.9453C20.4864 4.44375 20.2412 4.90152 19.8818 5.261C19.5223 5.62049 19.0645 5.86565 18.5661 5.96566C18.0676 6.06566 17.5507 6.01605 17.0804 5.82305C16.61 5.63005 16.2073 5.30229 15.9227 4.88098C15.6382 4.45968 15.4846 3.96365 15.4812 3.45527C15.4783 3.1137 15.5434 2.77496 15.6728 2.45883C15.8021 2.14269 15.9931 1.85548 16.2347 1.61394C16.4762 1.37241 16.7634 1.18138 17.0796 1.05201C17.3957 0.922647 17.7345 0.857521 18.076 0.860446Z" fill="white"/>
<path id="Trazado 200" d="M15.8152 7.33203H20.3675V17.1606C20.3675 18.2899 20.6418 18.7786 21.4053 18.7786C21.5901 18.7848 21.7748 18.7641 21.9537 18.7172V22.7495C21.2698 22.946 20.5583 23.0286 19.8476 22.9942C17.1601 22.9942 15.8174 21.5593 15.8174 18.6612L15.8152 7.33203Z" fill="white"/>
<path id="Trazado 201" d="M27.6715 22.7188L21.0767 7.33203H25.6872L29.7168 17.1014L33.7157 7.33203H38.3261L31.7313 22.7188H27.6715Z" fill="white"/>
<path id="Trazado 202" d="M38.738 7.33203H43.2865V17.1606C43.2865 18.2899 43.5608 18.7786 44.3242 18.7786C44.5091 18.7848 44.6938 18.7641 44.8727 18.7172V22.7496C44.189 22.946 43.4776 23.0286 42.7671 22.9942C40.0796 22.9942 38.737 21.5593 38.737 18.6612L38.738 7.33203Z" fill="white"/>
<path id="Trazado 203" d="M84.87 0.860441C85.3783 0.863806 85.8744 1.01742 86.2957 1.30196C86.717 1.5865 87.0447 1.98927 87.2377 2.45961C87.4307 2.92994 87.4803 3.44683 87.3803 3.94529C87.2803 4.44375 87.0352 4.90151 86.6757 5.261C86.3162 5.62049 85.8584 5.86565 85.36 5.96565C84.8615 6.06566 84.3447 6.01604 83.8743 5.82304C83.404 5.63005 83.0012 5.30228 82.7167 4.88098C82.4321 4.45967 82.2785 3.96365 82.2752 3.45527C82.2723 3.11372 82.3375 2.77501 82.4669 2.4589C82.5963 2.1428 82.7873 1.85561 83.0288 1.61409C83.2703 1.37257 83.5575 1.18155 83.8736 1.05216C84.1897 0.922766 84.5284 0.85759 84.87 0.860441Z" fill="white"/>
<path id="Trazado 204" d="M40.9973 0.860446C41.5056 0.86381 42.0016 1.01744 42.4229 1.30198C42.8442 1.58652 43.172 1.98928 43.365 2.45961C43.558 2.92995 43.6076 3.44684 43.5076 3.9453C43.4076 4.44375 43.1624 4.90152 42.803 5.261C42.4435 5.62049 41.9857 5.86565 41.4873 5.96566C40.9888 6.06566 40.4719 6.01605 40.0015 5.82305C39.5312 5.63005 39.1285 5.30229 38.8439 4.88098C38.5594 4.45968 38.4058 3.96365 38.4024 3.45527C38.3995 3.1137 38.4646 2.77496 38.5939 2.45883C38.7233 2.14269 38.9143 1.85548 39.1559 1.61394C39.3974 1.37241 39.6847 1.18138 40.0008 1.05201C40.3169 0.922647 40.6557 0.857521 40.9973 0.860446Z" fill="white"/>
<path id="Trazado 205" d="M82.6114 7.33203H87.1604V17.1606C87.1604 18.2899 87.4346 18.7786 88.1975 18.7786C88.3823 18.7848 88.5671 18.7641 88.746 18.7172V22.7496C88.0623 22.946 87.3509 23.0287 86.6404 22.9942C83.9529 22.9942 82.6102 21.5593 82.6102 18.6612L82.6114 7.33203Z" fill="white"/>
<path id="Trazado 206" d="M46.1133 7.33229V1.44336H50.5395V7.33504H53.9592V11.4568H50.5395V16.7962C50.5395 18.2617 51.1198 18.842 52.4937 18.842C52.8829 18.8332 53.2707 18.7923 53.6532 18.7197L53.646 22.7751C52.9171 22.9541 52.1687 23.0424 51.4181 23.0378C47.8761 23.0378 46.1133 21.2865 46.1133 17.6233V7.33229Z" fill="white"/>
<path id="Trazado 207" d="M72.2068 18.7863C71.3841 18.7863 71.0775 18.2976 71.0775 17.0773V7.26839H66.529V9.28347C66.0705 7.94027 64.2694 6.99415 61.9493 6.99415C60.9258 6.97026 59.909 7.16483 58.9667 7.56488C58.0243 7.96494 57.1781 8.56131 56.4844 9.31421C55.0466 10.8387 54.2678 12.8685 54.3168 14.9635C54.2678 17.0762 55.0455 19.1246 56.4844 20.6725C57.1841 21.4156 58.0321 22.0034 58.9736 22.3978C59.915 22.7922 60.9289 22.9843 61.9493 22.9618C64.3626 22.9618 66.0398 22.2296 67.0501 20.7334C67.3021 21.4331 67.786 22.0255 68.4212 22.4122C69.1948 22.8067 70.0569 22.9955 70.9245 22.9607C71.6146 22.9804 72.3037 22.898 72.9697 22.7161V18.7221C72.7166 18.7564 72.462 18.7778 72.2068 18.7863ZM62.7731 18.8121C62.2603 18.8237 61.7503 18.7327 61.2732 18.5443C60.7962 18.3559 60.3616 18.074 59.9951 17.7151C59.6289 17.3588 59.3397 16.9312 59.1454 16.4586C58.9512 15.9861 58.856 15.4787 58.8658 14.9678C58.8533 14.4611 58.9474 13.9574 59.1419 13.4894C59.3364 13.0213 59.6271 12.5993 59.9951 12.2507C60.3557 11.8816 60.7884 11.5908 61.2664 11.3965C61.7444 11.2022 62.2573 11.1086 62.7731 11.1214C63.2985 11.1054 63.8215 11.1974 64.3099 11.3917C64.7983 11.5859 65.2416 11.8783 65.6125 12.2507C66.0105 12.6133 66.3233 13.0594 66.5285 13.5572V16.3813C66.321 16.8857 66.0087 17.3403 65.6125 17.7151C65.2357 18.077 64.7906 18.3603 64.3032 18.5485C63.8158 18.7367 63.2959 18.8261 62.7736 18.8115L62.7731 18.8121Z" fill="white"/>
<path id="Trazado 208" d="M14.8433 9.77388L11.9885 12.5985C11.5488 12.0981 11.0067 11.6982 10.3989 11.4256C9.79111 11.1531 9.13181 11.0144 8.46571 11.0189C7.42056 11.0401 6.42538 11.4702 5.69373 12.2169C4.96208 12.9635 4.55226 13.9672 4.55226 15.0126C4.55226 16.058 4.96208 17.0617 5.69373 17.8083C6.42538 18.555 7.42056 18.9851 8.46571 19.0063C9.1318 19.0108 9.79109 18.8721 10.3989 18.5995C11.0067 18.327 11.5488 17.927 11.9885 17.4267L14.8433 20.2513C14.0535 21.1641 13.0731 21.8926 11.9712 22.3854C10.8692 22.8781 9.67264 23.1232 8.46571 23.1034C6.23454 23.1616 4.07156 22.3315 2.45228 20.7954C1.6832 20.044 1.07208 19.1464 0.654851 18.1555C0.237619 17.1645 0.0226898 16.1001 0.0226898 15.0249C0.0226898 13.9497 0.237619 12.8853 0.654851 11.8944C1.07208 10.9034 1.6832 10.0059 2.45228 9.25447C4.0682 7.71052 6.23016 6.86998 8.46461 6.9169C9.67211 6.89744 10.8692 7.14319 11.9713 7.63684C13.0735 8.13049 14.0539 8.86 14.8433 9.77388Z" fill="white"/>
<path id="Trazado 209" d="M97.4167 13.6334C95.7132 13.0065 94.4331 12.7811 93.855 12.5315C93.369 12.3121 93.2177 12.0982 93.2215 11.7011C93.227 11.1214 93.7804 10.7298 94.7572 10.7386C95.9458 10.7037 97.1244 10.9651 98.1868 11.4993L99.7286 8.30116C98.2882 7.38946 96.6204 6.90157 94.9158 6.89326C93.3944 6.82633 91.8949 7.27486 90.6601 8.16625C90.0889 8.57581 89.6279 9.12041 89.3183 9.75147C89.0087 10.3825 88.8601 11.0804 88.8858 11.7829C88.8667 13.8281 90.0442 15.2432 92.3873 16.09C92.8431 16.2469 93.6329 16.4739 94.4567 16.6895C95.2805 16.905 96.6428 17.2111 96.6428 18.0349C96.6428 18.8587 95.8679 19.2794 94.3108 19.2646C92.7869 19.183 91.2719 18.9813 89.7799 18.6613C89.7799 18.8296 89.7831 22.7293 89.7831 22.7293C91.2236 23.001 92.6864 23.1377 94.1523 23.1379C98.6701 23.1801 100.949 21.1562 100.978 18.0119C100.998 15.9682 99.9425 14.5115 97.4167 13.6334Z" fill="white"/>
</g>
</g>
<defs>
<clipPath id="clip0_956_5161">
<rect width="100.957" height="22.28" fill="white" transform="translate(0.0214539 0.860352)"/>
</clipPath>
</defs>
</svg>
